<svg xmlns="http://www.w3.org/2000/svg" height="800" width="1200" viewBox="-6.27063 -3.40285 54.34546 20.4171"><defs><clipPath id="a" clipPathUnits="userSpaceOnUse"><path d="M83.693 523.0626v56.693h170.079v-56.693"/></clipPath><clipPath id="b" clipPathUnits="userSpaceOnUse"><path d="M83.6929 523.0629h168.9817v56.6908H83.6929z"/></clipPath></defs><g clip-path="url(#a)" transform="matrix(.26012 0 0 -.26012 -23.0717 150.24)"><g clip-path="url(#b)"><path d="M140.1949 559.4633c-1.1181 0-1.9688-.6015-2.5515-1.8041-.4753-.9881-.7122-2.4065-.7122-4.2553 0-2.1972.3661-3.8213 1.0999-4.8724.5108-.7346 1.2261-1.1015 2.1461-1.1015.6188 0 1.1357.158 1.5507.475.5288.4049.9407 1.0526 1.2353 1.9418.2942.89.4416 2.0499.4416 3.481 0 1.7038-.15 2.9776-.4508 3.8225-.3004.8462-.6838 1.4423-1.1496 1.7911-.4657.3477-1.0022.5219-1.6095.5219m-.1081.6077c1.9476.0762 3.5303-.5219 4.7475-1.7945 1.2169-1.2731 1.8261-2.8653 1.8261-4.7775 0-1.6338-.4542-3.0711-1.3619-4.3122-1.2022-1.6461-2.9002-2.4695-5.0944-2.4695-2.2003 0-3.9014.785-5.1036 2.3557-.95 1.2411-1.4246 2.7133-1.4246 4.4163 0 1.9123.6177 3.5064 1.853 4.7818 1.2357 1.2764 2.7545 1.8761 4.5579 1.7999m13.2314-.9207v-5.2906h.3515c.5411 0 .9831.0858 1.3257.2569.3427.1704.6327.4588.87.8638.2373.4058.3923.9534.4642 1.6438h.3158v-6.4686h-.3158c-.1142 1.2223-.425 2.0284-.933 2.4172-.5077.3897-1.0838.5846-1.7269.5846h-.3515v-3.9418c0-.6583.0346-1.0699.1038-1.2345.0689-.165.2043-.3089.4054-.4323.2015-.1234.4734-.1854.8161-.1854h.4062v-.3515h-6.3932v.3515h.4061c.3546 0 .64.0666.8565.1996.1562.0885.2762.2408.3604.4558.0661.1523.0992.5511.0992 1.1969v8.472c0 .658-.0331 1.0699-.0992 1.2345-.0662.1646-.2.3085-.4012.4323-.2015.123-.4734.185-.8157.185h-.4062v.3515h10.315v-3.6945h-.3696c-.0838.8673-.2988 1.51-.6442 1.9276-.3457.4185-.8465.7123-1.5019.8835-.3603.0954-1.0276.1427-2.0014.1427m36.4782-7.7409l-1.8215 4.4352-1.8757-4.4352zm.3065-.7026h-4.3195l-.5138-1.2539c-.168-.418-.2523-.763-.2523-1.0353 0-.3607.1385-.6265.4146-.798.1623-.1012.5619-.1769 1.1992-.2273v-.3515h-4.0664v.3515c.4388.0692.7992.2607 1.0819.5746.2823.313.6315.9607 1.0461 1.9418l4.3737 10.2765h.1711l4.4095-10.5615c.42-1.0003.7661-1.6303 1.0365-1.8899.2042-.1961.4926-.31.8653-.3415v-.3515h-5.9147v.3515h.2434c.4746 0 .8085.0692 1.0007.2088.132.1012.1981.2466.1981.4366 0 .1138-.0173.2311-.0538.3511-.0123.0573-.1023.2945-.2708.7126m17.5866 2.4599l-.4596-4.521h-10.8561v.3515h.4058c.3546.0001.6399.0666.8561.1993.1565.0888.2765.2407.3607.4558.0662.1523.0993.5511.0993 1.1968v8.472c0 .6584-.0331 1.0699-.0993 1.2346-.0661.1646-.2.3092-.4011.4326-.2015.1235-.4734.1847-.8157.1847h-.4058v.3519h6.5186v-.3519h-.5315c-.3546 0-.6404-.0662-.8573-.1993-.1561-.0888-.2788-.2407-.3696-.4557-.0661-.1523-.0992-.5511-.0992-1.1965v-8.2063c0-.6587.0361-1.0783.1081-1.2583.0722-.1804.2142-.315.4246-.4038.1503-.057.5138-.0854 1.0907-.0854h1.0184c.65 0 1.1907.1208 1.6234.3607.4327.2408.8069.6204 1.1223 1.1396.3161.5196.6153 1.2857.8976 2.2987m9.3273-.1519l-1.8214 4.4352-1.8757-4.4352zm.3066-.7026h-4.3195l-.5138-1.2539c-.1681-.418-.2523-.763-.2523-1.0353 0-.3607.1377-.6265.4146-.798.1623-.1012.5619-.1769 1.1992-.2273v-.3515h-4.0664v.3515c.4388.0692.7992.2607 1.0819.5746.2823.313.6307.9607 1.0461 1.9418l4.3729 10.2765h.1719l4.4087-10.5615c.4207-1.0003.7669-1.6303 1.0365-1.8899.2042-.1961.4934-.31.8661-.3415v-.3515h-5.9148v.3515h.2435c.4746 0 .8084.0692 1.0007.2088.1319.1012.1981.2466.1981.4366 0 .1138-.0181.2311-.0539.3511-.0123.0573-.1023.2945-.2707.7126m17.3612 10.8181v-.3515c-.4034-.057-.7127-.1804-.9292-.3704-.3004-.2658-.7753-.9911-1.4242-2.175l-2.651-4.6632v-3.1157c0-.6645.0323-1.078.0992-1.2391.0654-.1616.1969-.3039.3923-.4277.195-.1231.455-.1846.7796-.1846h.685v-.3515h-6.8613v.3515h.64c.3607 0 .6461.0661.8565.1988.1561.0888.2796.2407.3696.4561.0661.152.1.5508.1 1.1965v2.5838l-2.8772 5.5178c-.5708 1.0892-.9734 1.7304-1.2077 1.9238-.2346.1931-.5476.2923-.9384.2988v.3515h5.8613v-.3515h-.2611c-.3554 0-.6035-.0542-.7446-.1615-.1412-.1073-.2119-.2215-.2119-.3419 0-.2281.2404-.8011.7219-1.7192l2.2087-4.2644 2.1999 3.8844c.5469.95.8212 1.5804.8212 1.8904 0 .1711-.0789.3134-.235.4276-.2039.1577-.58.2531-1.1269.2846v.3515m10.5442-8.51l-1.8207 4.4352-1.8757-4.4352zm.3065-.7026h-4.3187l-.5145-1.2539c-.1681-.418-.2524-.763-.2524-1.0353 0-.3607.1385-.6265.4146-.798.1631-.1012.5627-.1769 1.1996-.2273v-.3515h-4.0667v.3515c.4388.0692.7992.2607 1.0826.5746.2823.313.6308.9607 1.0453 1.9418l4.3737 10.2765h.1712l4.4094-10.5615c.4204-1.0003.7661-1.6303 1.0365-1.8899.2042-.1961.4927-.31.8661-.3415v-.3515h-5.9155v.3515h.2434c.4746 0 .8089.0692 1.0012.2088.1323.1012.1984.2466.1984.4366a1.217 1.217 0 01-.0542.3511c-.0119.0573-.1019.2945-.2704.7126m-92.8863 28.1773l6.0298-7.9877v5.5371c0 .7727-.105 1.2953-.3154 1.5672-.2884.3673-.7723.5446-1.4511.5319v.3515h4.0383v-.3515c-.5173-.0695-.8646-.1599-1.0415-.2703-.1769-.1112-.3154-.2915-.4146-.5415-.0988-.2504-.1485-.6792-.1485-1.2873v-10.723h-.3065l-8.265 10.723v-8.187c0-.7407.1607-1.2411.4819-1.5007.3215-.2592.6896-.3892 1.1046-.3892h.288v-.3515h-4.3352v.3515c.6731.006 1.1415.1515 1.4061.4369.2642.285.3965.7692.3965 1.453v9.0897l-.2611.3419c-.2585.3419-.4869.5665-.6854.6742-.198.1077-.4834.1677-.8561.1803v.3515m19.8292-12.5279v-.3515h-6.3905v.3515h.4057c.3539 0 .64.0669.8562.2.1561.0881.2761.2404.3607.4554.0654.1523.0989.5511.0989 1.1965v8.4723c0 .6588-.0335 1.0704-.0989 1.2346-.0665.1646-.2003.3092-.4011.4326-.2019.1235-.4738.185-.8157.185h-.4058v.3512h6.3905v-.3512h-.4057c-.3546 0-.64-.0665-.8562-.1992-.1565-.0892-.2796-.2408-.3696-.4565-.0661-.1519-.0992-.5504-.0992-1.1961v-8.4724c0-.6584.0346-1.0703.1039-1.2349.0688-.1642.2042-.3085.4053-.4323.2016-.1234.4735-.185.8158-.185m13.9706 12.5279v-.3515c-.4446-.0757-.8416-.3261-1.19-.7503-.2523-.3165-.6281-1.0608-1.1265-2.2318l-4.209-9.84h-.2974l-4.1909 10.2388c-.5046 1.235-.8435 1.9595-1.0138 2.1749-.1723.2154-.4954.3516-.9692.4084v.3515h5.8582v-.3515h-.1981c-.5288 0-.8895-.0695-1.0819-.2088-.138-.095-.2073-.2342-.2073-.418 0-.1139.0243-.2485.0724-.4035.048-.1554.2103-.5715.4865-1.2488l2.6052-6.4113 2.4149 5.7083c.2885.6899.4658 1.1523.532 1.3868.0661.2339.0992.4335.0992.5981 0 .19-.0481.3577-.1442.5034-.0962.1458-.2373.2565-.4239.3323-.2584.1077-.6007.1615-1.0276.1615v.3515m9.2296-.741v-5.2429h.2434c.775 0 1.3369.2565 1.6858.7696.3476.5126.5707 1.2692.6669 2.2699h.3426v-6.7436h-.3426c-.0727.7342-.2239 1.3361-.4554 1.8046-.2312.4684-.5.7838-.8065.9449-.3065.1615-.7511.2423-1.3342.2423v-3.6279c0-.7096.0285-1.1431.0858-1.3015.0569-.1581.1634-.2881.32-.3892.1561-.1015.4084-.152.7569-.152h.7303c1.1419 0 2.0569.2781 2.7441.8354.6881.5577 1.1823 1.4061 1.4827 2.5457h.3334l-.5496-4.0937h-10.563v.3515h.4054c.3545 0 .6399.0669.8557.2.1569.0881.2773.2404.3611.4554.0662.1523.0985.5511.0985 1.1968v8.472c0 .5823-.015.9404-.0442 1.0734-.0608.2212-.172.3923-.3343.5127-.2276.1773-.54.2661-.9368.2661h-.4054v.3512h10.2292v-3.8087h-.3415c-.175.9311-.4193 1.5988-.7354 2.0042-.3158.4053-.7611.703-1.338.893-.3365.1138-.9677.1708-1.893.1708m10.9238.0476v-5.6417h.5146c.8345.0001 1.4595.0808 1.8741.2423.4146.1612.7408.4527.9781.8735.2373.4211.3561.9703.3561 1.648 0 .9815-.2181 1.7064-.6538 2.1749-.4354.4688-1.1373.703-2.1038.703zm0-6.3159v-3.6095c0-.6965.0404-1.1349.1215-1.3157.0812-.18.2238-.3242.4285-.4318.2042-.1073.5857-.1612 1.1445-.1612v-.3519h-6.2547v.3519c.5646 0 .9476.0554 1.1492.1662.2011.1107.3423.255.4234.4322.0812.177.1219.6138.1219 1.3104v8.3581c0 .6965-.0407 1.135-.1219 1.3157-.0811.1804-.2238.3242-.4281.4319-.2042.1077-.5857.1615-1.1445.1615v.3515h5.6778c1.4784 0 2.5603-.108 3.2453-.323.6849-.2153 1.2438-.6127 1.6765-1.1918.4318-.5796.6484-1.2585.6484-2.0373 0-.9499-.3246-1.7349-.9731-2.3557-.4146-.3926-.9945-.6869-1.7395-.883l2.9387-4.3594c.3839-.5639.6573-.9154.8192-1.0546.2466-.1962.5319-.3042.8565-.3227v-.3519h-3.8483l-3.939 5.8701m16.2958 7.3036l.0993-4.2929h-.3696c-.1743 1.0761-.6027 1.9422-1.2846 2.5976-.6819.6553-1.4195.983-2.213.983-.6123 0-1.0973-.1727-1.4549-.5177-.3577-.3453-.5365-.7422-.5365-1.1918 0-.285.063-.5385.1896-.76.1742-.2977.4534-.5922.8372-.8834.2835-.2088.9346-.5792 1.9569-1.1111 1.4295-.7408 2.3941-1.4408 2.8929-2.0992.4927-.6584.7392-1.4119.7392-2.2603 0-1.0764-.3984-2.0026-1.1945-2.7783-.7961-.7754-1.8073-1.1631-3.0334-1.1631-.3846 0-.748.0408-1.0899.1231-.3423.0827-.7727.2377-1.2888.4658-.2885.1261-.5258.1896-.7123.1896-.1562 0-.3215-.0635-.4958-.1896-.1742-.127-.3153-.32-.4234-.5796h-.3338v4.8629h.3338c.2642-1.3677.7735-2.4111 1.5269-3.1296.7549-.7188 1.568-1.0776 2.4391-1.0776.6723 0 1.2088.1931 1.6084.5789.3996.3861.5992.8361.5992 1.3487 0 .3038-.0765.5985-.2296.8834-.1535.2851-.3861.5558-.6988.8119-.3123.2566-.8654.5904-1.6584 1.0023-1.1111.5762-1.9103 1.0669-2.3972 1.4723-.4866.4049-.8608.8576-1.1223 1.358-.2611.4999-.3919 1.0507-.3919 1.6526 0 1.0258.3577 1.8995 1.0727 2.6215.7149.7218 1.6157 1.0826 2.7033 1.0826a4.398 4.398 0 001.1546-.1519c.2819-.0762.6257-.2169 1.0315-.4227.4057-.2057.6896-.3085.8519-.3085.1561 0 .2792.0505.3696.1516.09.1015.1742.3453.2523.7315m8.6254-12.8222v-.3515h-6.3901v.3515h.4053c.3546 0 .64.0669.8565.2.1554.0881.2758.2404.36.4554.0658.1523.0996.5511.0996 1.1965v8.4723c0 .6588-.0338 1.0704-.0996 1.2346-.0654.1646-.2.3092-.4011.4326-.2008.1235-.4727.185-.8154.185h-.4053v.3512h6.3901v-.3512h-.4057c-.3547 0-.64-.0665-.8562-.1992-.1565-.0892-.2796-.2408-.3696-.4565-.0661-.1519-.0992-.5504-.0992-1.1961v-8.4724c0-.6584.0346-1.0703.1038-1.2349.0689-.1642.2043-.3085.4054-.4323.2015-.1234.4734-.185.8157-.185m12.4742 12.5279v-3.4856h-.3246c-.1924.8039-.4054 1.3819-.64 1.7335-.2335.3511-.5558.6315-.9646.8403-.2281.1142-.6277.1711-1.198.1711h-.9104v-9.935c0-.6584.0346-1.0699.1035-1.2345.0692-.1646.2046-.3089.4057-.4323.2016-.1235.4762-.185.8242-.185h.4062v-.3515h-6.3998v.3515h.4062c.3538 0 .6392.0669.8565.1996.1553.0884.2784.2404.3688.4558.0661.1519.0992.5507.0992 1.1964v9.935h-.8834c-.8234 0-1.4203-.1838-1.793-.5507-.5238-.5131-.8534-1.2446-.9915-2.1941h-.3427v3.4856m24.7686-.0001v-.3515c-.4034-.0568-.713-.1803-.9292-.3703-.3003-.2658-.7745-.9911-1.4234-2.1749l-2.6502-4.6633v-3.1157c0-.6645.0331-1.078.0992-1.2391.0661-.1616.1969-.3043.3923-.4277.1942-.1235.455-.185.7796-.185h.6849v-.3515h-6.8597v.3515h.64c.3615 0 .6469.0669.8565.1996.1561.0884.28.2404.3696.4558.0662.1519.0992.5507.0992 1.1964v2.5838l-2.8749 5.5182c-.5707 1.0888-.9734 1.7299-1.208 1.9234-.2342.1931-.5469.2927-.9373.2988v.3515h5.8583v-.3515h-.2612c-.3546 0-.6026-.0538-.743-.1615-.1419-.1077-.2119-.2215-.2119-.3419 0-.2277.2396-.8011.7211-1.7188l2.2076-4.2648 2.1988 3.8849c.5476.9495.8211 1.5795.8211 1.8899 0 .1711-.0781.3134-.235.4273-.2046.1584-.5792.2534-1.1261.2849v.3515m-103.6324.0209h4.2333v-.3547l-.312.007s-1.0222.0569-1.2907-.9008c-.113-.4042-.1273-.943-.1273-.943l.0139-1.9007v-2.9568l-.0281-1.1842s.007-.8323-.1419-1.7303c-.1831-1.0935-.6988-1.673-1.2554-2.1419-.3199-.2684-.8907-.8095-2.1556-1.0064-1.1411-.1781-2.2826-.002-2.5811.0638-.2996.0669-.5553.135-.8084.2338-.2177.0854-.58.2723-.8934.5462-.7869.688-.8581.9076-1.0281 1.2691-.2227.4731-.3984 1.5007-.3973 2 .0008.2126-.0142 1.2245-.0142 1.2245l.008 1.3734-.004 1.9581 2.9603 1.2691-.0115-2.3118v-2.0722c-.004-1.13-.0135-1.5669.0611-2.4411.0393-.4546.1677-.9961.3335-1.2122.0957-.1243.468-.6704 1.2976-.9008.855-.2385 1.7065.007 1.8649.0639.6331.2238 1.8111.8307 1.9853 3.0275.0516.6404.0704 1.6576.0639 2.0069-.006.3557-.0354 4.9636-.0354 4.9636s.0173.54-.1273.8865c-.2115.5093-.4896.6385-.773.7307-.1758.0566-.8369.1062-.8369.1062" fill="#2a3c9a"/><path d="M135.2651 573.0167l2.9499 1.2765s.008 1.2118.0288 1.4976c.0135.1942.0285.4284.0923.593.0554.1438.1923.2927.2796.3619.2985.2342.8704.2188.9815.2215.1646.005.4084-.008.4084-.008v.3688l-6.3266-.0173.001-.3658h.4396s1.0081.0381 1.1004-.8549c.063-.6104.0369-.9739.0369-.9739m30.1712-15.2062l4.9883.003 1.0388-2.5741-2.3961-1.6984-1.2411 3.0029.003-3.8748-.6731-.4607-.008 3.6125s.008.7546-.1057 1.0177c-.3546.8192-1.6023.6195-1.6065.6449-.006.0481 0 .3266 0 .3266" fill="#ee2922"/><path d="M169.123 555.4996l2.396 1.6877 2.3372-5.7583 3.3299 8.4877 4.9713.006-.005-.3538h-.4861s-.6527-.0165-.9207-.3019c-.3012-.32-.2842-.6723-.2908-.7192-.005-.0461-.0269-.9484-.0269-.9484l.006-8.7451s.0393-.7038.0843-.8249c.2623-.7093 1.3468-.6631 1.3468-.6631h.2877l-.004-.3338-6.3821.004v.3335l.4719.007s.6835-.0323.9892.3831c.1412.1915.205.2373.2381.7792.0265.4234.0211.7103.0242.738.003.0289.008 1.3396.008 1.3396l-.008 8.1735-4.6837-11.7607-.2269.007m-5.4352 7.0868l.6846.4612.004-5.7225s-.0611-.8938.6842-1.2799c.3996-.2073 1.0884-.2127 1.0884-.2127v-.3261l-4.1771-.0143.004.3404s.9607-.0385 1.3791.5107c.2643.3481.3089.7304.3089.7304l.0284.7015" fill="#2a3c9a"/><path d="M88.6954 577.3053h41.7145v-18.1254s.9726-21.9007-20.8311-33.9337c0 0-20.8834 10.485-20.8834 35.1471" fill="#b4921f"/><path d="M89.5777 560.056h39.9661s1.428-21.8322-19.9489-33.8275c0 0-19.9488 9.9096-20.0172 33.8275m0 .8061h40.0345v15.5994H89.5777z" fill="#2a3c9a"/><path d="M95.6267 553.2889l-.7592-.2549s-.0962.1138-.11.1919c-.0193.0804-.5019-.2704-.6339-.1746-.1265.0965.0816.2204-.5926.3-.5312.0676-.0308.2742-.3508.7992-.3265.5296-.455.4015-.4742.5107-.0119.1135.0335.305-.2734.3831-.3077.0803-.0977.2246-.2239.3688-.1284.1431-.2434.3023.0469.3181.2916.0157.3877.0311.3877.0311s-.3465.4181-.538.5492c-.1231.0827.0076.2008-.0124.3015-.0165.0981-.1276.4093.045.4278.1766.0184.3543-.1178.3543-.1178s-.03.1543.0054.3116c.0392.1515-.0177.3361-.0354.4088-.0177.0731.3926.0669.5684-.1465.1346-.1546.1119.3938.3165.3661.1219-.0457.1116-.2638.2781-.5311.1654-.2638.1458-.0892.0823-.5658-.0677-.4726-.1765-.7372 0-1.1222.1735-.3835.1396-.7196.2377-.7939.1031-.0703.3711.1823.36.4104-.0096.2285.1392-.1715.1303-.3165-.0084-.1489.1835.0796.1462.3165-.035.2369.1119.2104.0235.2827-.0985.0754-.2685-.0642-.2685.1569 0 .2189.1542.6738-.1019.6561-.1389-.009.2331.4389.2857.6212.0431.1646-.0934.155-.2153.1-.1204-.055.1942.3192.4619.5122.268.1908.4984.382.5903.5378.09.1546-.3884.2149.037.5383.2369.1824.2657.0724.4888.0451.218-.0285.3019.3815.3311.4546.0377.0919.2304-.0977.3519-.2619.1177-.1654.2696-.1474.47-.1731.1996-.03.3504-.2919.5723-.3746.2173-.0827.3623.1611.5984-.2757.065-.1166-.1127-.2262-.1127-.2262-.098-.0735-.118-.1261-.1099-.2546.0119-.1285-.0443-.2465-.0443-.2465l.9846.0277s.045-.3396-.3019-.4854c-.3508-.147-.8107-.1919-.98-.1185 0 0 .0731-.3215.01-.3738-.0654-.0554-.1296.045-.278.02-.1446-.0285-.3354-.1127-.3739-.1458-.0565-.0484.0066-.3038.2166-.3115.2107-.009 2.3349-.0366 4.0525.2562 1.7095.2907 1.6865.1257 2.2657-.1855.5811-.3095 1.8914-.7649 2.2495.1008.3592.8685-.34 1.7969-1.558 1.8611-1.2173.0646-2.3511-.3831-2.8753-.5177-.5269-.138-.873-.1607-.9873.1977-.0534.1758.5527.2404.8846.3039.3327.0642 1.64.5196 2.9511.4565 1.3061-.0654 2.141-.5846 2.2876-1.7273.1461-1.138-.7839-1.8776-2.2034-1.7411 0 0 .403-.3926.4684-.6011.0631-.2108-.1115-.2184 0-.3219.1119-.1.2408-.3469.26-.4561.0158-.1081.735-.4442.7634-.8004.0197-.2211-.1761-.2842-.1811-.3665-.015-.0839-.1338-.1823-.0965-.3269.0377-.1481.2311-.3669.2311-.5057 0-.1339-.2004-.1805-.2846-.3089-.085-.1288-.2308-.2727-.2596-.4096-.0265-.138-.1108-.3384-.3696-.3211-.2588.0211-.35-.0912-.4684-.1893-.1143-.0896-.2604-.1376-.2604.31 0 0-.1096.0624-.2204-.0477-.1088-.1084-.4127-.1715-.5061.0566 0 0-.3812.1107-.4208-.009 0 0-.0788.3104.1719.5208 0 0 .1031.0704-.0376.1707-.1343.1019-.2216.2565-.4258.2185 0 0 .175.3107.5192.2957.3392-.0211.3923-.2577.6254-.2757.2334-.02.368.2.4973.2177.128.0189 0 .1746.0846.3569.0827.1831-.1954.1535-.1566.3104.0354.155-.1888.0353-.335.1938-.1469.1531-.0623.0323-.4584.1427-.395.1119-.7473.2277-.7765.5973 0 0-.1377-.0393-.1915-.1677-.0535-.1285-.1919-.3823-.2942-.3892-.1016-.0112-.23.0249-.2493-.1019-.0223-.1277-.1927-.0751-.268-.1277-.0723-.0558.0438-.2189-.157-.2397-.2038-.0165-.2661-.0349-.2661-.2726 0-.2366-.1785-.0712-.2119-.1631-.0377-.0923-.1012-.2569-.0377-.4296.065-.1727.0996-.52.0192-.6111-.0827-.0935-.1669-.1658-.1854-.31-.0203-.1462-.1903-.0923-.1903-.0923s-.2073.3654-.3627.3742c-.1554.009-.3777-.3092-.6-.3-.2188.009-.2854.1012-.3604.0181-.073-.0827-.3107-.1646-.3872-.1004l-.0104.1989-.2166-.0347-.1111.1723s-.2658-.0527-.3781-.1376c-.1142-.0824-.1142.3949.0823.568 0 0-.3426.2634-.6365.1357 0 0 .3.6935.9677.6204.5069-.0527.3027-.3092.7542-.3092.4553 0 .6223.0181.6815.0981.0677.085.0204.2842.0204.2842s-.1377.2742-.1169.4946c.0161.2173-.122.1808-.0666.5261l-.5888-.1638c-.3592-.0969-.3592-.0969-.4269-.1988-.0619-.1023-.2569-.12-.4235-.0812-.1646.0323-.1857-.0388-.2019-.0823-.0196-.0493-.1684-.1373-.4307-.02-.2685.1173-.2166-.0181-.2892-.0562-.0723-.0353-.332.112-.332.112s-.1949.0992-.2657-.0169c-.0762-.1224-.1215-.1658-.3446-.1939-.2204-.0289-.0889-.1469-.3204-.2196-.23-.0735-.2207-.3546-.2023-.4642.0196-.1096.0719-.6027-.035-.6946-.1138-.0919-.3161.1019-.4369.1573-.1181.055-.0904-.22-.1573-.3581-.0631-.1376-.3215-.3103-.4515-.3011-.1265.008-.2492-.0273-.3785-.0996 0 0-.128-.0274-.1196.2908 0 0-.0084.1188-.2019.0196-.1915-.1023-.293-.0581-.3392.0557-.0488.1085-.2511.0896-.5392 0 0 0-.0139.4196.27.5289 0 0-.2585.0457-.4031-.008-.1527-.0558-.2138-.1012-.2138-.1012s.0611.3269.3469.4727c.2881.1473.2346.2761.4904.2465.2596-.025.4992-.025.7461.12.2477.1443.1938.1892.3138.2616.1215.0749.4073.6234.5646.6953.1546.0708.1212.263.1212.263"/><path d="M97.4677 557.2161s.2612-.0608.3246-.0104c.0608.0497.235.1216.3719.095.1377-.0199.5866-.0461.6754.015.085.0647.0531-.4692-1.0719-.4692-.1838 0-.125.2104-.34.2354l-.0161.1388" fill="#ee2922"/><path d="M104.4659 555.5623s-.1815-.2253-.0915-.3257c.0915-.0993.4311-.1665.4642-.0662.0327.1008 0 .4373-.3727.3919m.5092-.0784s-.043-.1685.0469-.2696c.0889-.1.2931 0 .3497.0569.0592.0554.013.1554-.0993.2561-.1134.102-.2973-.0434-.2973-.0434m.7154.19s-.2381-.0446-.2169-.2239c.023-.1788.1819-.1692.23-.1234.0442.0453.2473.1796-.0131.3473m.1831.3503c-.0235-.1684-.0235-.383.0892-.383.1142 0 .25.0896.25.248 0 .1574.0107.245.0107.245s-.3296.0596-.3499-.11m.3499.7743s-.1592-.1235-.2034-.2031c-.0469-.0797.0569-.2012.1792-.2012.1231 0 .1612.2119.0242.4043m-.2388.4115s-.0338-.1762.0573-.2423c.09-.0666.2377 0 .2062.0892-.0354.0892-.1254.3254-.2635.1531m-.19.1834c.1238-.0454.19-.0569.2142 0 .0212.0573-.0111.3042-.2726.2131 0 0-.0693-.1689.0584-.2131m-.3907.3465c.1507-.1219.273-.0423.273.0358s-.2584.1912-.2584.1912c-.1608.0107-.1608-.1043-.0146-.227m-.4604.2377c.1546-.0346.2015-.0684.2015-.0684s.0904.0577.055.1449c-.0308.0912-.3288.0912-.3288.0912s-.0862-.1361.0723-.1677m-.5254.1331c.1704 0 .1819.0692.1819.0692s-.0115.1231-.1819.1c-.1661-.0231-.1661-.0773-.1661-.0773s0-.0919.1661-.0919m-.6449.0346c.1607 0 .1953.0573.1819.1004-.0123.0454-.1123.0942-.2054.0942-.0889 0-.1465-.0942-.1465-.0942s.0127-.1004.17-.1004m-.6362-.0677c.2504.045.2204.1335.2204.1335s0 .1119-.29.08c-.2788-.0343-.1815-.1458-.1815-.1458s0-.1104.2511-.0677m-.8369-.215c.2266.0466.4646.0912.4285.215-.0335.125-.5473.0331-.5788-.0315 0 0-.0797-.2265.1503-.1835m-.5115-.1784c.2815.0915.2127.2934.0446.2827-.1707-.0131-.2957-.0666-.2957-.0666s-.0339-.3026.2511-.2161m-.7169-.1465c.3173.009.2046.2257.1377.2819-.0684.0569-.6261-.0889-.6261-.0889s-.0462-.2442.4884-.193m-8.8289-1.93s.0593-.1465.14-.1465c.0793 0 .0308.1892.0308.1892s-.1508 0-.1708-.0427m.195 1.2365l-.195.0227-.0111-.2034s.2711-.0893.2061.1807m.3304.4234c.0769.0258.1335.1031.1335.1924 0 .0865-.2512.0342-.2512.0342l-.0204-.2134s.057-.0335.1381-.0132m.5581.1147l.0873.0215c.0096.1115-.1262.2261-.1262.2261-.1019-.1457.0389-.2476.0389-.2476m1.2891-2.6976l-.0253.1484s-.1223.0112-.1223-.0788.1476-.0696.1476-.0696m-.3715-1.2634c.1139-.3119.1754-.195.4715-.0143.297.1785.08-.0461.2762-.1123.19-.0684.1238.1773.3488.1327.2285-.0423.2488.1708.1819.3158-.0638.1446-.2353.1258-.3619.1446-.1254.0238.1096.1704-.0242.2588-.1358.0916-.0523.3162-.1696.4181-.1119.0996-.3269-.0331-.3269-.0331-.0243-.2934.215-.5199.215-.5199s-.2073.1018-.2735.2499c-.0696.1465-.2261.4027-.2838.1327-.0535-.2673.0577-.4827.0577-.4827-.0477.067-.1585-.0426-.1927.3147-.0389.4046-.0223.4476-.2369.438-.2181-.0104-.2069-.5062-.2069-.5062s-.045-.0446-.0789.192c-.0308.2335.0927.3142.1381.4365.0469.1242.0288.3612-.1935.2489-.23-.1151-.1823-.315-.2396-.2166-.0573.1015.2642.5411.2642.6227 0 .0769-.0488.1996-.2642-.0473-.2146-.2465-.24-.1231-.2146-.0108.0235.1227.6108.3715.3404.5292-.2804.1577-.3658-.3396-.4435-.2042-.0803.1346.4085.5619.4085.5619s.0508.325.1246.6173c.0796.2907-.1246.3799-.3027.3799-.1831 0-.1054-.5707-.1054-.5707l-.058.01c.0107.5177-.1212.4954-.2489.4869-.1242-.015-.3165-.0592-.0677-.4631.2496-.4038.1596-.5365.0935-.3715-.0696.1696-.2042.3381-.4469.192-.2369-.1462 0-.2577.1292-.4024.1239-.1488.3935-.5072.1677-.4857-.2246.0254-.2246-.0334-.2246-.3361 0-.3031.2942-.0215.3634-.2565.1412-.4981.1781-.4392.3258-.6073.2123-.2431.2165-.5938.3508-.8542.1373-.2573.6484-.0435.7076-.1873m-.8549-1.9803c.1473-.0239.1953.1676.1953.1676-.2165.0239-.1953-.1676-.1953-.1676m.1376-.4958c.315-.0323.2377.1835.2377.1835-.2377.0438-.2377-.1835-.2377-.1835m1.0888-.3908c.2054-.0222.2146.2031.2146.2031-.2811.0346-.2146-.2031-.2146-.2031m1.1123.9093c-.0885-.3262.2142-.2662.2142-.2662 0 .2196-.2142.2662-.2142.2662m8.4862-.9589c.1869 0 .1362.2212.1362.2212-.2204.003-.1362-.2212-.1362-.2212m-1.1038.3031c.255-.0596.2058.21.2058.21s-.2735 0-.2058-.21m.0677.8831c-.0169.0926-.3754-.0493-.1989-.1343.182-.0858.1989.1343.1989.1343m-5.2167-.1847c.1711-.0354.228.1762.228.1762-.2957.0265-.228-.1762-.228-.1762m.3815-.4184c-.06-.1112-.0185-.1773-.0185-.1773.2146-.0519.2146.15.2146.15s-.1384.1369-.1961.0273m.7065-.4235c.19-.0161.1773.1751.1773.1751l-.1092.0792c-.1562-.1377-.0681-.2543-.0681-.2543m1.6349.3635c-.0849-.0954-.1784-.1173-.068-.2119.1107-.09.1534-.0766.1788.0339.0269.1088.0496.0826.0638.2518 0 0-.0892.0185-.1746-.0738m1.0985 2.9295c-.0535-.0423-.4339-.085-.58-.125-.1446-.0431.0173-.2188.0173-.2188l-.0496-.052c-.1785.2277-.4165.1262-.5542.0158-.1373-.1104-.3719-.1104-.2889-.2758.085-.1692.7142 0 .6512-.1088-.057-.1127-.2693-.0604-.6673-.0523-.4038.009-.3012-.0746-.2208-.3123.0739-.2365.7458-.1004.5765-.2081-.1692-.1119-.5534.1424-.5534-.1707 0-.3108.0346-.21.2738-.1596.2377.0503.4412.008.3396-.0254-.1019-.0334-.4788-.1788-.4611-.3273.0188-.1535.2585-.2785.2585-.2785s-.0185-.0672-.1912 0c-.1688.0677-.3534.1354-.235-.0672.1173-.2008.0792-.3035.025-.2204-.0527.0865-.1011.2204-.2207.2269-.1216.0107-.1439-.2592-.1543-.1923-.0065.0653-.1003.1684-.3134.1684-.215 0-.4115.1523-.5523.2612-.1477.1096-.3146.1019-.4819.043-.1592-.058-.1319-.2104-.1177-.398.0192-.1842.165-.1923.2642-.0746.1039.1188.2135.1007.3412.0234.1269-.0722.3511-.008.3384-.0384-.0069-.0338-.2284-.1104-.3442-.045-.1219.0677-.3673.045-.3638-.0985.013-.1454.16-.0969.1473-.2292-.0043-.1334.1842-.3696.3223-.1408.1684.2727.2596.3346.2596.3346s.4938.0251.4938-.009c0-.0331-.1554-.0827-.3585-.0827-.2042 0-.2323-.0923-.0676-.2807.1615-.185.2634-.0623.4326-.0623.1962 0 .4.2176.4292.2834.0189.0681.1073.1692.1558.1188.1212-.1173.1458-.1615.1965-.0592.0531.1015.24.0592.3066.1015.0684.0385-.0412.3169-.0593.4693-.015.1523.0819.1872.087.3204.008.1364.1523.0607.1523.1961 0 .1326-.1.3938.1669.3676.2769-.0254.1738.1439.1738.2789 0 .1346.0146.0677.2554.0104.2377-.0608.1788.1742.195.3027.0169.1253.1527-.1012.2746-.0939.1169.007.0142.1677.1938.2939.1765.128.1435.1945 0 .4138-.1461.2184-.4423.2184-.493.1765m-4.9875 2.8891s.025.0381-.0593.1873c0 0-.0607-.1742.0593-.1873m.0742.1627c-.0492-.1477.1285-.1108.2411-.1108.107 0 .1208.0846.2339.0966.1142.0142.0634.2007.0634.2007-.0511-.1138-.4857-.0404-.5384-.1865m5.9828-2.1069c-.0873-.2753-.4419-.4076-.4419-.4076.0531.21-.1788 1.0026-.1788 1.0026.1458.1208.3154-.6446.3154-.6446.2765-.0196.3115.5438.3115.5438l.0642.0393s.0181-.2623-.0704-.5335m-3.0318-.9984l-.1553-.0261s.0934.0834.2242.2546c.1281.1788.17.2384.17.2384l.0992.007-.3381-.4735zm-.4373-.0871c-.0642-.0738-.3803-.4126-.3803-.4126l-.3069-.007-.0173.0742s.1611-.0142.2911.0812c.13.0946.4492.3961.4492.3961s.0258-.0592-.0358-.1323m-3.5294 2.073l-.0389.1285h-.1607s.0061.2031-.065.3561c-.0666.1562-.0054.1946-.0054.1946l-.1019.0777.1723-.0408.0646-.2796.205-.0665v-.2134s-.0296-.0977.028-.1255c.0627-.0311-.098-.0311-.098-.0311m-.3427-.745l-.0677-.0269s.0165.1185-.1173.1485c-.1258.0277-.1608.1299-.1608.1299l.0466.0393.0215.0827.1073-.007s.0077-.1346.1027-.2224c.0965-.0869.0677-.1442.0677-.1442m-.4758.7761l-.0203.6097-.0481.1161.0877.1708.1157.0492.022-.1442-.1193-.0677.032-.0766.0088-.6573zm.0043-.453c-.0727 0-.0727.1177-.0727.1177h.0804s.0684-.1177-.0077-.1177m.198 1.843l.1108.2515.2354.0481-.0112-.0869s-.2527-.1815-.2719-.2892l-.0215-.1073-.1089-.005.0673.1892zm.9658-.0485c.0238.0677.1223.0677.1223.0677l.0265-.2803-.125.0204s-.285.1538-.285.31c0 0 .2431-.1847.2612-.1178m.013.4265l.3696-.0488.0204-.0669s-.2727-.0404-.4211 0c-.1431.0373-.2335.3473-.2335.3473.1496.02.2646-.2316.2646-.2316m1.1915.0593c0 .0712.0508.0612.0508.0612s.0481-.1104.1377-.0612c.0861.0469.0196-.1746-.0388-.2107-.0639-.0362-.2535-.062-.2535-.062s.0404.1608-.0596.1608c-.0973 0 .1634.0361.1634.1119m8.0313-4.8237c-.1873.2004-.7469.5827-.7469.5827s.1134.2481-.2027.4712c0 0 .0992.168-.1392.3357 0 0 .2499.0673-.0981.4857-.3527.4143-.3769.3478-.3769.3478l.0242.0665s.3392-.077.3392.1123c0 .1919.1242.2465-.533.3819 0 0-.0447-.3931-.1593-.3931 0 0 .0135.4112-.0396.4981-.0469.0865-.3588.1592-.41.1592-.0484 0 .135-.3811.0512-.4665 0 0-.1704.39-.3342.6388-.0523.0766-.4365.05-.4365.05s.2369-.4911.2607-.6284c.009-.0747-.0654-.0254-.0654-.0254s-.308.6276-.5449.6915c-.2366.0604.033-.5423.033-.68 0-.1346-.0723-.0465-.0723-.0465s-.1261.5777-.3957.5777c-.1258 0 .2315-.5654.1465-.7638-.0873-.1982-.15.8249-.6954.6911-.0984-.0258 0-.1493.0862-.3346.0819-.1847.1627-.4685.0738-.6031l-.0738-.0108s-.0654.7262-.3511.8604c-.2862.1354 0-.3704 0-.3704s.0415-.1846.0161-.4308l-.0788-.0484s.007.8627-.4439.8627c-.2892 0 .0977-.5285.1339-.665.0404-.1366.0146-.5431-.0989-.603 0 0 .0627.5776-.0996.7499-.1634.1735-.2903.5496-.6734.4669-.1719-.0334.1773-.5907.25-.8373.0769-.2477.0769-.713-.0231-.7395 0 0-.0496.5799-.2011.963-.1473.3792-.2473.5288-.4243.5673-.1746.0365-.2084-.1481-.0865-.3842.1238-.2316-.1108-.2927.1015-.5158.2116-.223.1362-.4919.1362-.4919l-.0923.009s-.0112.2727-.095.3835c-.1146.1488-.1488.2346-.1212.3946.0197.1608-.1999.5065-.4107.5434-.2123.0366.035-.1853.1211-.655.0873-.468.1385-1.3049-.1357-1.4537 0 0 .2142.9519.035 1.4664-.1716.5158-.1085.6277-.3089.6166-.2519-.0181-.0996-.2854-.0996-.4192 0-.1362.1385-.6165.0496-.8854 0 0-.0738.5154-.163.5654-.085.0507.013.4538-.0227.5673-.0346.1111-.1904.2826-.2604.1719-.0777-.11.0219-.3089.0092-.4696-.0092-.1597.0381-.3677-.0092-.4296-.0542-.0623-.1281-.225 0-.3115.1223-.0851.0319-.4904-.0673-.5027 0 0 .0765.2704-.0104.4088-.0896.1346-.1888.195-.0757.3923.113.1966.0992.3227.0526.5292-.0526.2112-.1507.26-.1249.3585.0269.0996-.2535.1119-.2535-.05 0-.1581-.0865-.4685-.1569-.5031-.0758-.0389-.1289-.1858-.1289-.1858s0 .2204.1173.3704c.1089.1481.0604.355-.09.3434-.1484-.0111-.2003-.3695-.5965-.3553 0 0 .5692.3442.4985.5769-.0781.2377-.515-.4573-.8231-.3315 0 0 .8081.4707.6854.6892-.0885.16-.3135.0123-.3135.0123s-.0727-.1843-.2573-.2227c0 0 .1935.2104.225.3111 0 0 0 .1823-.1784.0593-.1731-.1204-.1104.11-.1973.1742-.0885.0615-.225.009-.2592.1969-.0404.1831-.0404.245-.0404.245s.0623-.1857.1373-.2211c.0738-.0373.2492-.0239.2592-.1593.0142-.1373.0669-.2215.2384-.0877.1727.1358.0893-.0861.1366-.1227.0511-.0357.1992-.113.2754.0366.048.0984.045-.1085.1761-.0723.2196.0607.2835.1938.345.1707.065-.0246.2961-.1988.16.2585 0 0-.2496.0634-.3462-.0365-.0992-.0985-.3349-.12-.4742-.0366-.1361.0847-.06.3942.1731.4684.2411.0724.2515.0997.475.0385.2261-.0657.5353.0223.5219.2692-.0131.247-.1839.2327-.1839.2327l.0231.0854s.265-.1073.2881.0765c.0227.1843-.1273.2573-.3385.2454 0 0 .0104-.1226-.0846-.0977-.1027.0239-.0769.0977-.0769.0977l-.1369.0119s-.0981-.1226-.1608-.1604c-.0604-.033-.1138-.108-.198-.0861-.0897.0254.1611.112.0203.1996-.1346.0869-.173-.1135-.173-.1135s0 .1604.113.2239c.1131.0619.1016.0619.1889.01.0842-.0496.1881-.0854.1881.0388 0 .1227-.1881.2204-.3235.2073-.1423-.01-.2523.0377-.2758-.0942-.0269-.1388-.0869-.0777-.0869-.0777s.0262.1623-.0765.1623c-.0989 0-.2104-.075-.2104-.1846 0-.1123-.0127-.1984-.0127-.1984h-.0638s.0519.2984-.0466.308c-.1015.0116-.4899-.003-.4899-.003s-.0858.2843-.2689.1258c-.1834-.1577.0423-.3607.0973-.4042l.0266-.1584-.137-.1s-.3149-.1335-.4319-.2793c-.1115-.1457-.3415-.3938-.3415-.3938l.2404-.0263s-.3185-.4023-.3973-.5465c-.08-.1478-.0554-.2266.0788-.2266 0 0 .1131-.1884-.0103-.3457-.072-.0877-.0485-.2866-.0485-.2866s.12-.0715.2642-.007c0 0 .0539-.1234-.0457-.3019-.1023-.18-.0597-.5607-.0243-.6623.0369-.1026.1958-.0227.2616.0323.0715.055.0715-.2818.0715-.2818s0-.3354.2031-.437c0 0 .1207.2242.1207.3619 0 .1331.1146.1762.1146.1762s.1043-.4054.2646-.4938c0 0-.07-.0774-.183.0573-.1112.1334-.2304 0-.215-.0774.0104-.0788.0446-.2261.1719-.348.1204-.1246.1669-.3154.1669-.3154s.2942.0908.3046.4042c.0112.3147.2065.8662.3427.9431l.0446-.0443s-.2508-.3361-.2035-.6299c0 0 .0408-.1096.2035 0 .1588.1134.3961.4031.3961.4031s.0227-.2793-.4861-.5585c0 0-.2054-.1008-.1923-.2696 0 0 .1015-.0235.3754.0554.2723.0769.4434.1007.4434.1007s-.15-.1796-.4911-.2788c-.3408-.1019-.5231-.1111-.5808-.4065 0 0 .3727-.0693.5692-.009.1954.0543.2823.0889.2823.0889s-.1449-.08-.2146-.1573c-.0677-.0808-.5503-.0239-.6703-.0585-.1143-.0315-.2116-.1096-.2019-.2561l.4522-.1027-.0792-.0543-.555-.0254s-.2749-.1007-.1265-.2907c.0796-.0992.4235-.0212.4235-.0212s-.0827-.1495-.1866-.1572c-.0973-.0124-.5973.0565-.6434-.0785-.0465-.1361.1131-.2138.27-.2692 0 0-.1146-.0561-.3365-.0112-.2277.0442-.3108 0-.4581-.0449-.1462-.0443-.5092.1115-.645.009-.1357-.1004-.0907-.3242.0258-.3708.11-.0426.6911.0346.7911.135 0 0-.0904-.19-.2838-.19-.19 0-.4431.0331-.4431-.1465 0-.1765.0585-.2773.1835-.3365.1246-.0539.3061-.0416.4738.17.1723.2111.2635.19.3631.2696.1053.0765.2146.1569.2146.2461 0 0 .0807-.1011-.0054-.2261-.0923-.1231-.2092-.0996-.3088-.21 0 0-.25-.0681-.1939-.2362.0585-.1665.1939.0204.2735-.055.0792-.08.1711-.2384.3826-.0592.2212.1804.1362.5404.1704.6973 0 0 .1612-.0804.2869.0765.12.1573.2266-.0458.1896.3161-.0334.3596.1154.5496.3008.5496.1769 0 .28.1573.3111.2342.0362.0797.2077-.0769.2539.1139.045.1923.1142.2681.2615.2246.1473-.0438.2242-.01.2923.1458.0677.1584.2127.2577.4.3588.1815.1031.305.2131.305.3277l.0534.01s.0273-.2796-.27-.4388c-.2926-.1585-.4088-.3035-.3953-.4581.0107-.1561.1461-.1923.2269-.1377.08.057.0984.2008.1477.1708.0415-.0331.0788-.2254.2046-.1138.1242.1138.0988.1438.2223.0595.1257-.093.5026-.093.48.0543-.022.1465-.1108.1111-.1031.1673.0127.0565.0692.0565.2734-.0562.2131-.115.5573.0689.8492.2146.2954.1443.7754.3381 1.0323.4808.2615.1488.5942.2496.8073.2592.2161.0116.2607.1892-.1566.3469-.1523.0573-.3649.0127-.3649.0127l.0457.08s.4388.1069 1.0342-.3823c.3396-.2811.8265.3708.8265.3708s.0912.0777.1354.0542c.0458-.0204-.2392-.3704-.3054-.425-.0692-.0573-.4103-.2361-.2819-.36.1231-.1234.495-.26.905.6965 0 0 .1365.1362.0357-.1803-.1038-.3162-.3438-.55-.5319-.6831-.0769-.0523-.1146-.3576.3027-.3723.3112-.0107.4762.8323.4885 1.0784.0127.2254.0657-.0538.035-.3265-.035-.2696-.3043-.8765-.2123-.9292.0865-.0573.4407-.0435.5284.8535.0323.3372.1042-.2474.0665-.4185-.0342-.1665-.2219-.4815-.0203-.5146.2073-.0361.3857.3358.3857.4492 0 .11.1831-.1134-.01-.3261-.1919-.2143-.23-.4389.0535-.4485.2876-.0115.5807.0766.5807.0766l-.0123-.112s-.4846-.0315-.5323-.235c-.0442-.2015.3377-.1253.4542-.1696l-.0127-.0792s-.4276.0577-.4415-.1319c-.0123-.1915.2265-.1142.4623-.4169l-.1012-.0116s-.1438.2247-.4507.1566c-.3065-.067-.265-.2358-.4888-.2119-.2273.0231-.4977.2465-.59.2119-.0931-.0319-.0246-.1566-.1046-.2358-.0785-.0772.0115-.1915.2515-.133.2377.0558.2-.0439.3708-.0585.1711-.0112.2638.1143.4015.0585 0 0-.1785-.19-.3504-.1585-.1727.0373-.4219.1473-.5142.0554-.0915-.0869-.0792-.1219.0231-.2135.1034-.0892-.0416-.3234.1515-.3234.1915 0 .3396.1342.4388.1342.1043 0 .1277.2477.3773.3473.2466.1.3746.1473.3746.1473s-.025-.1473-.1484-.1919c-.1254-.045-.3846-.1208-.3196-.2569.068-.1327.2304-.1669.4338-.1589.2008.0104.245.0785.3023.2589.0577.1788.2046.4034.3654.505.1577.1011-.1258.2807-.1258.5046 0 .2223.3438.7526.1462.9564m-8.9985 5.9386s0 .1128-.155.0135c-.1612-.0996-.1004-.26-.1004-.26.4058-.0772.2554.2465.2554.2465" fill="#fff200"/><path d="M116.1281 553.2889l-.7626-.2549s-.0935.1138-.1119.1919c-.0154.0804-.5004-.2704-.6262-.1746-.1334.0965.0816.2204-.6007.3-.5292.0676-.03.2742-.3515.7992-.3243.5296-.4535.4015-.4723.5107-.0131.1135.0369.305-.2696.3831-.3062.0803-.097.2246-.2277.3688-.1281.1431-.2408.3023.05.3181.2884.0157.3861.0311.3861.0311s-.3477.4181-.5361.5492c-.1258.0827.007.2008-.0146.3015-.0169.0981-.1262.4093.0477.4278.1742.0184.3515-.1178.3515-.1178s-.0296.1543.009.3116c.0369.1515-.0219.3361-.0388.4088-.0169.0731.3927.0669.5723-.1465.1273-.1546.1107.3938.3123.3661.1223-.0457.115-.2638.2757-.5311.1646-.2638.1477-.0892.0835-.5658-.0666-.4726-.1777-.7372 0-1.1222.1757-.3835.1384-.7196.2419-.7939.1004-.0703.3665.1823.3607.4104-.0107.2285.135-.1715.1281-.3165-.0111-.1489.1846.0796.1481.3165-.0373.2369.1088.2104.0161.2827-.0907.0754-.2661-.0642-.2661.1569 0 .2189.1558.6738-.1019.6561-.1389-.009.2365.4389.2869.6212.0438.1646-.0942.155-.2112.1-.1196-.055.1893.3192.4616.5122.2619.1908.4965.382.5896.5378.0892.1546-.3904.2149.033.5383.2389.1824.2685.0724.4904.0451.2204-.0285.3019.3815.3334.4546.035.0919.2293-.0977.3496-.2619.1162-.1654.2643-.1474.4681-.1731.2069-.03.3531-.2919.5734-.3746.2196-.0827.3646.1611.5973-.2757.0646-.1166-.1107-.2262-.1107-.2262-.102-.0735-.1185-.1261-.1073-.2546.005-.1285-.0443-.2465-.0443-.2465l.9842.0277s.0439-.3396-.3057-.4854c-.3516-.147-.8119-.1919-.9762-.1185 0 0 .0716-.3215.007-.3738-.0616-.0554-.1281.045-.2777.02-.1446-.0285-.335-.1127-.3762-.1458-.053-.0484.009-.3038.2223-.3115.2131-.009 2.333-.0366 4.0449.2562 1.7168.2907 1.6907.1257 2.2737-.1855.5735-.3095 1.8853-.7649 2.2461.1008.3607.8685-.3438 1.7969-1.5599 1.8611-1.2173.0646-2.3519-.3831-2.8769-.5177-.5215-.138-.8715-.1607-.9861.1977-.0573.1758.5531.2404.8858.3039.3353.0642 1.6399.5196 2.9533.4565 1.308-.0654 2.1345-.5846 2.2849-1.7273.1439-1.138-.7826-1.8776-2.2037-1.7411 0 0 .4073-.3926.4665-.6011.0669-.2108-.1116-.2184 0-.3219.1142-.1.2457-.3469.2627-.4561.015-.1081.7345-.4442.7657-.8004.0165-.2211-.1777-.2842-.1865-.3665-.006-.0839-.1277-.1823-.0946-.3269.0388-.1481.2369-.3669.2369-.5057 0-.1339-.2035-.1805-.2919-.3089-.0816-.1288-.2258-.2727-.2554-.4096-.0258-.138-.1112-.3384-.37-.3211-.2558.0211-.3481-.0912-.4684-.1893-.1147-.0896-.2573-.1376-.2573.31 0 0-.1108.0624-.2219-.0477-.1131-.1084-.4162-.1715-.5089.0566 0 0-.3773.1107-.4215-.009 0 0-.0727.3104.1715.5208 0 0 .102.0704-.035.1707-.1365.1019-.2223.2565-.4234.2185 0 0 .1757.3107.5142.2957.3465-.0211.3996-.2577.625-.2757.2319-.02.3703.2.5.2177.1299.0189 0 .1746.083.3569.0839.1831-.1938.1535-.1531.3104.0351.155-.1853.0353-.333.1938-.1465.1531-.0689.0323-.4627.1427-.3942.1119-.7442.2277-.7734.5973 0 0-.1389-.0393-.1965-.1677-.0531-.1285-.192-.3823-.2923-.3892-.1016-.0112-.2293.0249-.2496-.1019-.0189-.1277-.1943-.0751-.2681-.1277-.0742-.0558.0442-.2189-.1558-.2397-.205-.0165-.2669-.0349-.2669-.2726 0-.2366-.175-.0712-.2115-.1631-.0393-.0923-.1004-.2569-.0393-.4296.0662-.1727.1039-.52.022-.6111-.0831-.0935-.1662-.1658-.1889-.31-.0107-.1462-.1919-.0923-.1919-.0923s-.2019.3654-.3607.3742c-.1523.009-.3754-.3092-.5962-.3-.2215.009-.2869.1012-.3607.0181-.0758-.0827-.3165-.1646-.3842-.1004l-.0139.1989-.2196-.0347-.1134.1723s-.2643-.0527-.3793-.1376c-.1069-.0824-.1069.3949.085.568 0 0-.3399.2634-.6338.1357 0 0 .2977.6935.9692.6204.5073-.0527.3058-.3092.7531-.3092.4519 0 .6157.0181.6826.0981.065.085.0189.2842.0189.2842s-.1393.2742-.1189.4946c.0181.2173-.1165.1808-.0642.5261l-.5927-.1638c-.3569-.0969-.3569-.0969-.423-.1988-.0616-.1023-.2558-.12-.4242-.0812-.167.0323-.1812-.0388-.2-.0823-.022-.0493-.1685-.1373-.435-.02-.2662.1173-.2108-.0181-.2889-.0562-.0734-.0353-.3303.112-.3303.112s-.1946.0992-.2685-.0169c-.0727-.1224-.115-.1658-.3403-.1939-.2223-.0289-.0947-.1469-.322-.2196-.2319-.0735-.2223-.3546-.2038-.4642.0223-.1096.0762-.6027-.0331-.6946-.1111-.0919-.3161.1019-.4369.1573-.12.055-.0907-.22-.155-.3581-.063-.1376-.3238-.3103-.4534-.3011-.1315.008-.2477-.0273-.3792-.0996 0 0-.1277-.0274-.1185.2908 0 0-.009.1188-.2038.0196-.1923-.1023-.2919-.0581-.3423.0557-.0439.1085-.2477.0896-.5308 0 0 0-.0204.4196.2681.5289 0 0-.2592.0457-.4069-.008-.1477-.0558-.2131-.1012-.2131-.1012s.0654.3269.3519.4727c.2831.1473.2277.2761.4869.2465.2581-.025.4973-.025.7473.12.2496.1443.1919.1892.3123.2616.1204.0749.4073.6234.5627.6953.1573.0708.1257.263.1257.263"/><path d="M117.9658 557.2161s.2642-.0608.3276-.0104c.0623.0497.2327.1216.3677.095.1408-.0199.5908-.0461.6738.015.0904.0647.057-.4692-1.0676-.4692-.1908 0-.1239.2104-.3346.2354l-.0223.1388" fill="#ee2922"/><path d="M124.9647 555.5623s-.1834-.2253-.0927-.3257c.0927-.0993.4308-.1665.4669-.0662.0308.1008 0 .4373-.3742.3919m.5104-.0784s-.0462-.1685.0415-.2696c.0939-.1.2992 0 .3562.0569.0542.0554.01.1554-.1035.2561-.115.102-.2942-.0434-.2942-.0434m.7123.19s-.2343-.0446-.2143-.2239c.0223-.1788.1831-.1692.2296-.1234.042.0453.2477.1796-.0153.3473m.1815.3503c-.0189-.1684-.0189-.383.0908-.383.113 0 .2534.0896.2534.248-.0004.1574.0112.245.0112.245s-.3296.0596-.3554-.11m.3554.7743s-.1612-.1235-.2073-.2031c-.0462-.0797.0557-.2012.1811-.2012.1292 0 .1631.2119.0262.4043m-.2389.4115s-.035-.1762.0539-.2423c.0923-.0666.238 0 .2092.0892-.0358.0892-.1277.3254-.2631.1531m-.1927.1834c.1227-.0454.1927-.0569.215 0 .0223.0573-.013.3042-.2727.2131 0 0-.0692-.1689.0577-.2131m-.3823.3465c.1404-.1219.2677-.0423.2677.0358s-.2607.1912-.2607.1912c-.1593.0107-.1593-.1043-.007-.227m-.4688.2377c.1592-.0346.2058-.0684.2058-.0684s.0884.0577.0573.1449c-.0373.0912-.335.0912-.335.0912s-.0888-.1361.0719-.1677m-.523.1331c.17 0 .1803.0692.1803.0692s-.0103.1231-.1803.1c-.1673-.0231-.1673-.0773-.1673-.0773s0-.0919.1673-.0919m-.6458.0346c.155 0 .1904.0573.1792.1004-.0107.0454-.1111.0942-.2011.0942-.0935 0-.1481-.0942-.1481-.0942s.0112-.1004.17-.1004m-.6365-.0677c.2512.045.2142.1335.2142.1335s0 .1119-.283.08c-.2846-.0343-.1812-.1458-.1812-.1458s0-.1104.25-.0677m-.8419-.215c.2296.0466.4681.0912.4327.215-.0369.125-.5442.0331-.5788-.0315 0 0-.0781-.2265.1461-.1835m-.5092-.1784c.285.0915.2169.2934.0465.2827-.1703-.0131-.2957-.0666-.2957-.0666s-.0339-.3026.2492-.2161m-.7134-.1465c.3177.009.203.2257.1323.2819-.0673.0569-.6173-.0889-.6173-.0889s-.0539-.2442.485-.193m-8.8281-1.93s.0542-.1465.1334-.1465c.0796 0 .0369.1892.0369.1892s-.1476 0-.1703-.0427m.195 1.2365l-.195.0227-.009-.2034s.2665-.0893.2039.1807m.3276.4234c.0789.0258.1362.1031.1362.1924 0 .0865-.2512.0342-.2512.0342l-.0223-.2134s.0558-.0335.1373-.0132m.5527.1147l.0915.0215c.012.1115-.1246.2261-.1246.2261-.1004-.1457.0331-.2476.0331-.2476m1.2953-2.6976l-.0223.1484s-.1242.0112-.1242-.0788.1465-.0696.1465-.0696m-.3703-1.2634c.1184-.3119.1796-.195.4757-.0143.2915.1785.0762-.0461.27-.1123.1927-.0684.1223.1773.3496.1327.2281-.0423.2512.1708.185.3158-.0723.1446-.2404.1258-.3642.1446-.1219.0238.1131.1704-.0219.2588-.1373.0916-.0596.3162-.1727.4181-.1108.0996-.3292-.0331-.3292-.0331-.022-.2934.2184-.5199.2184-.5199s-.2069.1018-.2715.2499c-.0708.1465-.2296.4027-.2869.1327-.0523-.2673.0573-.4827.0573-.4827-.0443.067-.1604-.0426-.1927.3147-.0385.4046-.0223.4476-.2388.438-.2146-.0104-.205-.5062-.205-.5062s-.0466-.0446-.0793.192c-.0323.2335.092.3142.137.4365.0434.1242.0365.3612-.195.2489-.2239-.1151-.1777-.315-.2385-.2166-.0554.1015.2642.5411.2642.6227 0 .0769-.0434.1996-.2642-.0473-.2127-.2465-.235-.1231-.2127-.0108.0223.1227.6127.3715.34.5292-.2796.1577-.3623-.3396-.4454-.2042-.0753.1346.4104.5619.4104.5619s.0446.325.1285.6173c.0757.2907-.1285.3799-.3077.3799-.1831 0-.1035-.5707-.1035-.5707l-.0577.01c.0131.5177-.1238.4954-.248.4869-.1239-.015-.3192-.0592-.0677-.4631.2457-.4038.155-.5365.0908-.3715-.0693.1696-.2062.3381-.4454.192-.2381-.1462 0-.2577.1281-.4024.1246-.1488.3969-.5072.1703-.4857-.2311.0254-.2311-.0334-.2311-.3361 0-.3031.2981-.0215.3665-.2565.1423-.4981.1796-.4392.3288-.6073.2124-.2431.2166-.5938.35-.8542.135-.2573.6454-.0435.7085-.1873m-.8508-1.9803c.1423-.0239.1866.1676.1866.1676-.2143.0239-.1866-.1676-.1866-.1676m.1296-.4958c.3204-.0323.2423.1835.2423.1835-.2423.0438-.2423-.1835-.2423-.1835m1.0915-.3908c.2039-.0222.2162.2031.2162.2031-.2846.0346-.2162-.2031-.2162-.2031m1.1119.9093c-.0888-.3262.22-.2662.22-.2662 0 .2196-.22.2662-.22.2662m8.4885-.9589c.1885 0 .1389.2212.1389.2212-.2227.003-.1389-.2212-.1389-.2212m-1.108.3031c.2569-.0596.2038.21.2038.21s-.2723 0-.2038-.21m.0684.8831c-.0169.0926-.3742-.0493-.1946-.1343.1777-.0858.1946.1343.1946.1343m-5.2159-.1847c.1688-.0354.2277.1762.2277.1762-.2962.0265-.2277-.1762-.2277-.1762m.3838-.4184c-.0623-.1112-.0153-.1773-.0153-.1773.213-.0519.213.15.213.15s-.1373.1369-.1977.0273m.7058-.4235c.1873-.0161.1773.1751.1773.1751l-.1081.0792c-.1542-.1377-.0692-.2543-.0692-.2543m1.6361.3635c-.0893-.0954-.1796-.1173-.0681-.2119.1123-.09.1507-.0766.1773.0339.0254.1088.0534.0826.0608.2518 0 0-.0874.0185-.17-.0738m1.0972 2.9295c-.0523-.0423-.4392-.085-.5792-.125-.1423-.0431.0181-.2188.0181-.2188l-.0535-.052c-.1761.2277-.4184.1262-.5507.0158-.1381-.1104-.3804-.1104-.2923-.2758.0842-.1692.7173 0 .658-.1088-.0607-.1127-.2738-.0604-.6734-.0523-.3981.009-.2996-.0746-.2219-.3123.0792-.2365.7507-.1004.5777-.2081-.1689-.1119-.55.1424-.55-.1707 0-.3108.0311-.21.27-.1596.2369.0503.4477.008.3442-.0254-.1073-.0334-.4811-.1788-.4627-.3273.0154-.1535.2573-.2785.2573-.2785s-.0184-.0672-.1888 0c-.1685.0677-.3589.1354-.2369-.0672.1188-.2008.0723-.3035.0219-.2204-.0477.0865-.0992.2204-.22.2269-.1165.0107-.1442-.2592-.1535-.1923-.0111.0653-.0996.1684-.3138.1684-.2154 0-.4092.1523-.5523.2612-.1461.1096-.3177.1019-.4769.043-.1611-.058-.1373-.2104-.1227-.398.0193-.1842.1669-.1923.2646-.0746.1062.1188.217.1007.3431.0234.1235-.0722.3477-.008.3377-.0384-.009-.0338-.2269-.1104-.3458-.045-.118.0677-.3657.045-.36-.0985.009-.1454.155-.0969.1423-.2292-.008-.1334.1904-.3696.3273-.1408.165.2727.2585.3346.2585.3346s.4869.0251.4869-.009c0-.0331-.1512-.0827-.3531-.0827-.2057 0-.2315-.0923-.0684-.2807.1592-.185.2661-.0623.4326-.0623.1927 0 .3996.2176.4239.2834.0257.0681.1115.1692.1646.1188.1107-.1173.1438-.1615.1927-.0592.0538.1015.2399.0592.3103.1015.067.0385-.0438.3169-.0623.4693-.0169.1523.0793.1872.0846.3204.008.1364.1558.0607.1558.1961 0 .1326-.1058.3938.1715.3676.2704-.0254.167.1439.167.2789 0 .1346.0146.0677.253.0104.2389-.0608.1804.1742.2004.3027.0127.1253.1531-.1012.2704-.0939.1177.007.018.1677.198.2939.177.128.1423.1945 0 .4138-.1465.2184-.4446.2184-.4942.1765m-4.9848 2.8891s.0239.0381-.0642.1873c0 0-.065-.1742.0642-.1873m.0719.1627c-.048-.1477.1247-.1108.2393-.1108.1107 0 .1242.0846.2346.0966.113.0142.0634.2007.0634.2007-.0484-.1138-.4849-.0404-.5373-.1865m5.9821-2.1069c-.085-.2753-.4461-.4076-.4461-.4076.0561.21-.1777 1.0026-.1777 1.0026.1461.1208.3204-.6446.3204-.6446.2788-.0196.3084.5438.3084.5438l.0654.0393s.0204-.2623-.0704-.5335m-3.0287-.9984l-.1558-.0261s.0927.0834.2185.2546c.1327.1788.1727.2384.1727.2384l.105.007-.3404-.4735zm-.4404-.0869c-.063-.0738-.3796-.4126-.3796-.4126l-.3069-.007-.0204.0742s.1612-.0142.2935.0812c.1338.0946.4484.3961.4484.3961s.0258-.0592-.035-.1323m-3.5283 2.073l-.0411.1285h-.1604s.004.2031-.0619.3561c-.0662.1562-.0143.1946-.0143.1946l-.0957.0777.1719-.0408.0642-.2796.2042-.0665v-.2134s-.0238-.0977.0335-.1255c.0565-.0311-.1004-.0311-.1004-.0311m-.3404-.745l-.0715-.0269s.0123.1185-.1154.1485c-.135.0277-.165.1299-.165.1299l.05.0393.0169.0827.1108-.007s.008-.1346.1027-.2224c.095-.0869.0715-.1442.0715-.1442m-.4796.7761l-.0227.6097-.0492.1161.0923.1708.115.0492.0208-.1442-.1166-.0677.0308-.0766.006-.6573h-.0766zm.006-.453c-.0781 0-.0781.1177-.0781.1177h.0815s.07-.1177-.003-.1177m.1996 1.843l.1073.2515.2292.0481-.005-.0869s-.2554-.1815-.2761-.2892l-.0181-.1073-.1077-.005.0704.1892zm.9638-.0485c.0189.0677.1185.0677.1185.0677l.0273-.2803-.1269.0204s-.2835.1538-.2835.31c0 0 .2465-.1847.2646-.1178m.0112.4265l.3719-.0488.0161-.0669s-.2696-.0404-.4173 0c-.1465.0373-.2311.3473-.2311.3473.1438.02.2604-.2316.2604-.2316m1.1918.0593c0 .0712.0496.0612.0496.0612s.0481-.1104.1335-.0612c.0885.0469.0277-.1746-.0354-.2107-.065-.0362-.248-.062-.248-.062s.0369.1608-.0627.1608c-.1016 0 .163.0361.163.1119m8.0332-4.8237c-.1946.2004-.7488.5827-.7488.5827s.1119.2481-.2058.4712c0 0 .1035.168-.1315.3357 0 0 .2453.0673-.1023.4857-.3546.4143-.3789.3478-.3789.3478l.0243.0665s.3419-.077.3419.1123c0 .1919.1242.2465-.5365.3819 0 0-.0447-.3931-.157-.3931 0 0 .0127.4112-.035.4981-.0523.0865-.3665.1592-.4169.1592-.0457 0 .1377-.3811.0504-.4665 0 0-.1646.39-.3342.6388-.0469.0766-.4358.05-.4358.05s.235-.4911.2608-.6284c.0115-.0747-.0608-.0254-.0608-.0254s-.3126.6276-.5496.6915c-.2361.0604.0389-.5423.0389-.68 0-.1346-.0735-.0465-.0735-.0465s-.1227.5777-.4.5777c-.1234 0 .2385-.5654.1481-.7638-.0873-.1982-.1557.8249-.6957.6911-.1019-.0258 0-.1493.085-.3346.0888-.1847.1611-.4685.0761-.6031l-.0761-.0108s-.0612.7262-.3473.8604c-.2854.1354 0-.3704 0-.3704s.04-.1846.0131-.4308l-.077-.0484s0 .8627-.4492.8627c-.2869 0 .1019-.5285.1423-.665.0339-.1366.0112-.5431-.1046-.603 0 0 .0642.5776-.0984.7499-.1612.1735-.2889.5496-.6743.4669-.1715-.0334.1747-.5907.252-.8373.0761-.2477.0761-.713-.0239-.7395 0 0-.0534.5799-.1977.963-.1523.3792-.248.5288-.4238.5673-.1742.0365-.2127-.1481-.0892-.3842.1223-.2316-.1119-.2927.1019-.5158.2092-.223.1331-.4919.1331-.4919l-.0866.009s-.0169.2727-.0961.3835c-.1112.1488-.1519.2346-.1285.3946.0285.1608-.1992.5065-.41.5434-.2092.0366.0347-.1853.1254-.655.0854-.468.1369-1.3049-.1354-1.4537 0 0 .2097.9519.0362 1.4664-.1758.5158-.1131.6277-.3108.6166-.2523-.0181-.1-.2854-.1-.4192 0-.1362.1366-.6165.0497-.8854 0 0-.0739.5154-.1612.5654-.0884.0507.0135.4538-.0277.5673-.0369.1111-.1834.2826-.2592.1719-.0735-.11.0242-.3089.0138-.4696-.0138-.1597.0323-.3677-.0138-.4296-.05-.0623-.1254-.225 0-.3115.1238-.0851.0373-.4904-.0608-.5027 0 0 .0746.2704-.0127.4088-.0888.1346-.1888.195-.0761.3923.1111.1966.0996.3227.0481.5292-.0481.2112-.1462.26-.1239.3585.0219.0996-.248.1119-.248-.05 0-.1581-.087-.4685-.1647-.5031-.0726-.0389-.1242-.1858-.1242-.1858s0 .2204.115.3704c.1112.1481.0631.355-.0873.3434-.1496-.0111-.2015-.3695-.5973-.3553 0 0 .5696.3442.4973.5769-.0758.2377-.5123-.4573-.8211-.3315 0 0 .8034.4707.6869.6892-.0865.16-.315.0123-.315.0123s-.0758-.1843-.2604-.2227c0 0 .1973.2104.2235.3111 0 0 0 .1823-.1739.0593-.1738-.1204-.1107.11-.1996.1742-.0857.0615-.2253.009-.263.1969-.037.1831-.037.245-.037.245s.0608-.1857.137-.2211c.0773-.0373.2519-.0239.263-.1593.0123-.1373.0627-.2215.2346-.0877.1773.1358.087-.0861.1427-.1227.0477-.0357.1958-.113.2681.0366.0515.0984.0427-.1085.1754-.0723.2265.0607.2884.1938.3519.1707.0588-.0246.2927-.1988.1592.2585 0 0-.2481.0634-.3484-.0365-.0974-.0985-.3381-.12-.4735-.0366-.1327.0847-.0627.3942.1738.4684.2393.0724.2497.0997.4739.0385.2257-.0657.5365.0223.5234.2692-.0111.247-.1884.2327-.1884.2327l.028.0854s.2631-.1073.2846.0765c.022.1843-.1242.2573-.3365.2454 0 0 .0112-.1226-.0854-.0977-.103.0239-.0796.0977-.0796.0977l-.1311.0119s-.1019-.1226-.1627-.1604c-.0631-.033-.1173-.108-.2015-.0861-.085.0254.1603.112.0234.1996-.135.0869-.1738-.1135-.1738-.1135s0 .1604.1127.2239c.1153.0619.1042.0619.1853.01.0912-.0496.1904-.0854.1904.0388 0 .1227-.1904.2204-.3257.2073-.137-.01-.2477.0377-.2731-.0942-.0242-.1388-.0892-.0777-.0892-.0777s.0242.1623-.0762.1623c-.0973 0-.2061-.075-.2061-.1846-.0004-.1123-.0123-.1984-.0123-.1984h-.0646s.05.2984-.0493.308c-.1004.0116-.485-.003-.485-.003s-.0907.2843-.2699.1258c-.1854-.1577.0438-.3607.0957-.4042l.0266-.1584-.1362-.1s-.3215-.1335-.4284-.2793c-.1131-.1457-.3462-.3938-.3462-.3938l.2439-.0261s-.3216-.4023-.4031-.5465c-.0758-.1478-.0515-.2266.0815-.2266 0 0 .1147-.1884-.009-.3457-.0723-.0877-.05-.2866-.05-.2866s.1242-.0715.2631-.007c0 0 .055-.1234-.0462-.3019-.1019-.18-.0523-.5607-.0227-.6623.0354-.1026.1923-.0227.2619.0323.0674.055.0674-.2818.0674-.2818s0-.3354.2053-.437c0 0 .1239.2242.1239.3619 0 .1331.1165.1762.1165.1762s.1019-.4054.2611-.4938c0 0-.0688-.0774-.1826.0573-.1154.1334-.2266 0-.2173-.0774.0111-.0788.0469-.2261.1669-.348.1292-.1246.1738-.3154.1738-.3154s.2981.0908.3069.4042c.0112.3147.2031.8662.3385.9431l.0484-.0443s-.2526-.3361-.2053-.6299c0 0 .0461-.1096.2053 0 .1573.1134.3943.4031.3943.4031s.0223-.2793-.4846-.5585c0 0-.2058-.1008-.197-.2696 0 0 .1035-.0235.3743.0554.2738.0769.4419.1007.4419.1007s-.1439-.1796-.4862-.2788c-.3388-.1019-.5165-.1111-.5769-.4065 0 0 .375-.0693.5677-.009.1881.0543.2846.0889.2846.0889s-.1481-.08-.2185-.1573c-.0661-.0808-.5565-.0239-.6695-.0585-.1093-.0315-.2127-.1096-.2031-.2561l.4511-.1027-.0738-.0543-.5577-.0254s-.275-.1007-.1273-.2907c.0819-.0992.4204-.0212.4204-.0212s-.0781-.1495-.1835-.1572c-.0957-.0124-.5957.0565-.6403-.0785-.0458-.1361.1073-.2138.2688-.2692 0 0-.1135-.0561-.3392-.0112-.2292.0442-.3089 0-.455-.0449-.1458-.0443-.51.1115-.6454.009-.1369-.1004-.0946-.3242.0185-.3708.1169-.0426.6977.0346.7996.135 0 0-.0946-.19-.2869-.19-.1923 0-.4442.0331-.4442-.1465 0-.1765.0584-.2773.1884-.3365.1204-.0539.3012-.0416.4719.17.1712.2111.2596.19.3608.2696.1073.0765.218.1569.218.2461 0 0 .0781-.1011-.0126-.2261-.0889-.1231-.2054-.0996-.3066-.21 0 0-.248-.0681-.1888-.2362.0531-.1665.1888.0204.2715-.055.0812-.08.1665-.2384.385-.0592.2123.1804.1365.5404.1681.6973 0 0 .1596-.0804.283.0765.1262.1573.23-.0458.195.3161-.0357.3596.1139.5496.2973.5496.1796 0 .2796.1573.3127.2342.0388.0797.2073-.0769.2519.1139.0496.1923.1112.2681.2631.2246.1434-.0438.2284-.01.2915.1458.0689.1584.215.2577.3996.3588.1815.1031.3035.2131.3035.3277l.0573.01s.0257-.2796-.2693-.4388c-.2969-.1585-.4076-.3035-.4003-.4581.0169-.1561.148-.1923.2284-.1377.0804.057.0992.2008.1469.1708.0485-.0331.0785-.2254.2062-.1138.12.1138.1011.1438.2234.0595.1297-.093.5035-.093.4773.0543-.0223.1465-.1127.1111-.1034.1673.0142.0565.0707.0565.2773-.0562.2127-.115.5546.0689.8492.2146.2961.1443.7715.3381 1.033.4808.26.1488.5881.2496.8046.2592.215.0116.2661.1892-.1592.3469-.1481.0573-.3608.0127-.3608.0127l.0446.08s.44.1069 1.03-.3823c.34-.2811.8311.3708.8311.3708s.0908.0777.1346.0542c.0427-.0204-.2361-.3704-.305-.425-.0688-.0573-.4073-.2361-.2854-.36.1223-.1234.5004-.26.9089.6965 0 0 .1353.1362.035-.1803-.1035-.3162-.3423-.55-.5346-.6831-.0743-.0523-.1127-.3576.3069-.3723.3057-.0107.4753.8323.485 1.0784.0126.2254.0719-.0538.035-.3265-.035-.2696-.305-.8765-.2143-.9292.0908-.0573.44-.0435.5331.8535.0365.3372.1011-.2474.0684-.4185-.0319-.1665-.2265-.4815-.0265-.5146.2058-.0361.3927.3358.3927.4492 0 .11.1777-.1134-.0131-.3261-.1911-.2143-.2277-.4389.0531-.4485.2854-.0115.5815.0766.5815.0766l-.0112-.112s-.4907-.0315-.5349-.235c-.0458-.2015.3388-.1253.4534-.1696l-.009-.0792s-.4292.0577-.4442-.1319c-.009-.1915.2296-.1142.4661-.4169l-.1035-.0116s-.1461.2247-.4511.1566c-.3073-.067-.2592-.2358-.4904-.2119-.2273.0231-.4992.2465-.5884.2119-.0885-.0319-.0242-.1566-.1035-.2358-.078-.0772.015-.1915.25-.133.2408.0558.2058-.0439.3754-.0585.1719-.0112.2612.1143.3958.0585 0 0-.1808-.19-.3535-.1585-.1677.0373-.4177.1473-.5065.0554-.0888-.0869-.0819-.1219.0238-.2135.1-.0892-.048-.3234.1443-.3234.1927 0 .3384.1342.4438.1342.1019 0 .1246.2477.3723.3473.2554.1.3754.1473.3754.1473s-.0204-.1473-.1477-.1919c-.1258-.045-.3819-.1208-.3166-.2569.0685-.1327.2293-.1669.4308-.1589.2058.0104.2496.0785.305.2589.0581.1788.2057.4034.365.505.1577.1011-.1262.2807-.1262.5046 0 .2223.3392.7526.1485.9564m-8.9981 5.9386s0 .1128-.16.0135c-.1577-.0996-.0985-.26-.0985-.26.4069-.0772.2585.2465.2585.2465" fill="#fff200"/><path d="M105.8655 535.3058l-.7573-.2576s-.0954.1111-.1123.1915c-.0131.0842-.5008-.2689-.6273-.1742-.13.0938.0789.2215-.5957.3019-.5358.065-.037.2754-.3566.803-.3207.5234-.4507.3934-.4672.5077-.0166.1127.0299.3035-.2727.3819-.3085.0807-.0985.2258-.2285.3692-.1277.1408-.2419.3043.0496.3158.2908.0188.3854.035.3854.035s-.3461.4138-.5407.5468c-.1197.0832.0115.2016-.007.3028-.0196.0976-.1296.4103.0416.4253.1776.0216.3553-.1161.3553-.1161s-.0288.1573.005.3115c.0408.1554-.0173.3365-.0342.4092-.0204.0746.393.0693.5692-.1458.1284-.1553.1131.3919.3142.3643.1204-.0443.1146-.2642.2792-.5285.1608-.2661.1443-.09.0812-.5673-.0662-.4753-.1746-.7369 0-1.1211.1761-.385.135-.7211.2411-.7942.0981-.0738.3658.1846.36.4092-.009.2285.1365-.1719.1254-.3184-.006-.1465.1881.0827.1508.3184-.0362.2381.1092.2143.0157.2843-.0896.0745-.2661-.0666-.2661.1554 0 .2169.155.6757-.1016.6565-.1388-.009.2335.4384.2873.6215.0454.1646-.0919.1573-.2115.1023-.1177-.0562.1908.3157.4588.5057.27.1962.4985.3862.5896.5393.0935.1546-.388.2164.0393.5411.2373.1811.2649.0707.4861.0434.2227-.0292.305.3815.3334.4588.0331.0881.2266-.1015.3496-.2657.1227-.1658.2673-.1435.4696-.1758.2031-.0249.3523-.2896.5731-.3738.2207-.0808.3604.1596.6019-.2731.0608-.1192-.115-.2253-.115-.2253-.0996-.0727-.1208-.1292-.1131-.2569.0135-.1285-.0419-.2473-.0419-.2473l.9876.0288s.0408-.3404-.3069-.4815c-.3499-.147-.8115-.1927-.9765-.1224 0 0 .0693-.3172.0104-.3726-.0669-.055-.1292.0431-.2773.02-.1492-.0288-.3346-.1138-.3788-.1492-.0535-.045.009-.3019.2223-.3085.21-.0104 2.3341-.0388 4.0456.2543 1.7188.293 1.6911.1284 2.2718-.1812.5792-.3131 1.8857-.7669 2.2461.0961.3611.8681-.3384 1.8011-1.5561 1.8638-1.2192.0615-2.3534-.3823-2.8768-.5219-.5273-.1338-.8715-.1596-.9865.2042-.0573.1743.5496.235.8884.3027.3312.0604 1.6357.5192 2.9457.4542 1.3095-.065 2.1403-.5826 2.2864-1.7261.1462-1.1396-.7838-1.8791-2.203-1.7403 0 0 .4073-.3915.4735-.603.0607-.2112-.1169-.2215 0-.3193.1092-.1007.2384-.3491.2534-.4553.0227-.11.7381-.45.7696-.8038.0181-.2211-.1757-.2846-.1869-.3658-.007-.0826-.1273-.1846-.0923-.3276.0373-.1474.2308-.3658.2308-.5008 0-.1381-.202-.1869-.2846-.3104-.0816-.13-.2312-.2773-.2612-.4146-.0269-.1346-.1092-.3358-.3681-.3176-.2569.0172-.3476-.0912-.468-.1893-.1123-.0931-.2585-.1408-.2585.3058 0 0-.1073.0665-.2246-.0443-.105-.1069-.4103-.173-.5049.0523 0 0-.3754.1116-.425-.008 0 0-.0712.3138.1753.5246 0 0 .1016.068-.0334.1708-.1419.0991-.2219.2545-.4235.2191 0 0 .172.3131.5158.2885.3407-.0142.3961-.2531.6238-.2727.2312-.0158.3669.2054.4977.2204.1296.0215 0 .1758.085.3546.0781.1831-.1939.1569-.1554.313.0331.1524-.1861.0354-.3365.1908-.1462.1543-.0608.0385-.4573.1466-.3977.1107-.7454.2246-.7731.595 0 0-.1407-.0408-.1961-.167-.0573-.1246-.1942-.3815-.2965-.3934-.1012-.007-.2293.03-.2458-.0962-.0204-.1299-.1961-.0757-.2715-.1299-.0708-.0562.0511-.2204-.1546-.2389-.2066-.0173-.2662-.0369-.2662-.2735 0-.2365-.175-.0727-.2138-.1607-.0373-.0939-.1008-.2596-.0373-.4323.0623-.1739.1-.5204.0208-.6123-.0843-.0908-.1689-.1627-.1854-.3062-.0204-.1465-.1923-.0915-.1923-.0915s-.2035.3619-.3608.3708c-.1573.0123-.3796-.3085-.6015-.2992-.2204.008-.2834.098-.3573.0199-.0734-.0849-.3142-.1646-.3865-.1026l-.0112.2031-.2165-.0408-.1146.173s-.2661-.0534-.3773-.1322c-.1111-.0851-.1111.3903.0812.5649 0 0-.3412.2615-.6366.1335 0 0 .2954.6915.9677.625.5092-.0573.3073-.3135.755-.3135.4549 0 .6215.0212.6861.1.0654.0827.0135.28.0135.28s-.1393.2773-.117.4961c.017.2184-.1223.1812-.0646.5323 0 0-.2296-.0669-.5888-.1654-.3585-.1034-.3585-.1034-.4246-.1996-.0669-.1023-.2596-.1234-.4238-.085-.1669.0385-.1835-.0384-.2-.0823-.0204-.0458-.1669-.1361-.4381-.0188-.268.1192-.2119-.0165-.2838-.0543-.0731-.0354-.3331.1105-.3331.1105s-.1919.1003-.2669-.0228c-.0723-.1154-.1184-.1577-.3404-.1869-.2211-.0292-.0938-.1461-.3265-.2192-.2277-.0731-.2181-.3573-.1996-.4634.0192-.1135.0731-.6058-.0358-.6962-.1123-.0892-.3126.1011-.4365.155-.1192.0542-.0931-.2169-.1557-.3577-.0643-.1322-.3216-.3077-.4485-.3003-.1311.0108-.2531-.0239-.3788-.097 0 0-.1331-.0307-.1239.2908 0 0-.009.1165-.2011.0173-.1942-.0996-.295-.0531-.3396.0562-.0458.1065-.2477.0919-.5358 0 0 0-.018.4188.2681.5284 0 0-.2569.045-.405-.0119-.1465-.0508-.2119-.0977-.2119-.0977s.0654.33.3488.4727c.2881.1465.2327.2754.49.248.2581-.0246.4942-.0246.7462.1158.2473.1489.1938.1927.3122.2669.1231.0742.4062.6234.5654.6927.1538.0757.1181.2657.1181.2657"/><path d="M107.7081 539.2322s.2619-.0615.3269-.0127c.0638.0512.2388.1239.3742.0985.1316-.0234.5823-.0512.6681.0146.0903.0627.0542-.4707-1.0723-.4707-.1811 0-.1208.2107-.3342.2365l-.0181.1373" fill="#ee2922"/><path d="M114.709 537.5781s-.1866-.2223-.0927-.3277c.0927-.0988.4296-.1665.4669-.065.0308.1019 0 .4392-.3742.3927m.5111-.0789s-.05-.1685.0438-.2681c.0908-.0999.2927 0 .3485.0562.0573.0569.0123.1546-.1008.2562-.1138.1007-.2915-.0443-.2915-.0443m.7119.1908s-.2404-.0458-.2142-.2216c.0223-.1811.1792-.1711.2238-.1242.0462.0454.2496.1762-.01.3458m.1792.3492c-.0204-.1681-.0204-.3815.0927-.3815s.2515.0872.2515.2465c0 .1565.008.2431.008.2431s-.3257.0607-.3523-.1081m.3523.7749s-.1577-.123-.2038-.203c-.0431-.08.0573-.2011.1869-.2011.1219 0 .1515.2099.0169.4041m-.2369.4143s-.0354-.1796.0588-.2454c.0885-.0658.2385 0 .202.0896-.032.0896-.1277.3231-.2608.1558m-.1892.1811c.1184-.0462.1892-.055.213 0 .0208.0542-.01.3027-.2703.2139 0 0-.0723-.17.0573-.2139m-.3923.3496c.1504-.1249.2761-.0469.2761.0297 0 .0819-.2611.1934-.2611.1934-.1589.009-.1589-.1035-.015-.2231m-.4619.2323c.1569-.0327.2069-.0657.2069-.0657s.0904.0565.0515.1446c-.033.093-.3276.093-.3276.093s-.0904-.135.0692-.1719m-.5223.1377c.1665 0 .1811.0646.1811.0646s-.0146.1254-.1811.1015c-.1719-.023-.1719-.078-.1719-.078s0-.0881.1719-.0881m-.6477.0342c.1573 0 .1946.0539.1819.1004-.0134.0412-.1153.0866-.2053.0866-.0877 0-.1481-.0866-.1481-.0866s.0146-.1004.1715-.1004m-.6346-.0703c.25.0449.2146.1345.2146.1345s0 .112-.283.0774c-.2842-.0327-.1812-.1416-.1812-.1416s0-.113.2496-.0703m-.8399-.2143c.228.047.463.0919.4315.2143-.0319.1242-.5404.0361-.5811-.0335 0 0-.0762-.2258.1496-.1808m-.5123-.1765c.2865.0866.2161.2892.0461.28-.17-.0116-.2923-.0689-.2923-.0689s-.0334-.2995.2462-.2111m-.7142-.1462c.3165.0108.2077.2254.1388.2777-.07.0597-.6234-.0861-.6234-.0861s-.0523-.2466.4846-.1916m-8.8266-1.9314s.06-.1481.1373-.1481c.0812 0 .03.1915.03.1915s-.145 0-.1673-.0434m.1919 1.235l-.1919.0211-.015-.2016s.275-.0919.2069.1805m.3308.4253c.0777.0216.1369.1.1369.1915 0 .0904-.2496.0328-.2496.0328l-.0262-.2116s.0593-.0354.1389-.0127m.5515.1108l.0938.0257c.009.1097-.1253.2243-.1253.2243-.102-.1454.0315-.25.0315-.25m1.2965-2.693l-.0219.1454s-.1243.0135-.1243-.0812c0-.0869.1462-.0642.1462-.0642m-.3738-1.2703c.1203-.3097.1796-.1912.4765-.01.2938.1803.0796-.0435.2711-.1135.1939-.0677.1262.1819.3535.1373.228-.0457.2461.1685.1803.3139-.0696.1434-.2403.1222-.3634.1434-.1231.025.1177.17-.0223.2585-.135.0919-.0569.3184-.1688.4207-.1154.0973-.3308-.0366-.3308-.0366-.0223-.2922.2154-.5184.2154-.5184s-.2016.1-.2731.247c-.0681.148-.2246.4053-.2811.1369-.0573-.272.0565-.4831.0565-.4831-.0473.0666-.1588-.0462-.1954.3123-.0357.4034-.0208.4515-.2357.4392-.2166-.0115-.2039-.5038-.2039-.5038s-.0446-.0485-.0815.1881c-.0339.2369.0908.3157.1357.44.0466.1234.0377.3588-.1915.2472-.2277-.1115-.1792-.3138-.2365-.2142-.0592.1027.2584.5365.2584.6169 0 .0796-.0457.2035-.2584-.0431-.215-.248-.2373-.1238-.215-.0127.0215.122.6077.3697.3396.5281-.2804.1593-.3619-.3365-.44-.2012-.0838.1343.4031.5589.4031.5589s.0461.3269.125.6195c.0796.2878-.125.3812-.3069.3812-.1773 0-.1023-.5707-.1023-.5707l-.0554.0103c.0146.5146-.1262.495-.2496.4827-.1204-.0157-.3173-.0561-.0666-.4615.2527-.403.1589-.5377.0908-.3688-.0677.1673-.2023.3373-.4415.1919-.2396-.1481 0-.2619.1246-.4085.1188-.1442.395-.5026.1723-.4811-.2288.0219-.2288-.035-.2288-.335 0-.3038.2957-.025.3622-.2603.1435-.4954.1816-.4397.3273-.6035.2135-.2419.2185-.5981.3523-.8553.1381-.2577.6523-.0435.7039-.1927m-.8527-1.9738c.1488-.0254.1942.1677.1942.1677-.2115.0231-.1942-.1677-.1942-.1677m.1358-.4988c.3169-.0323.2407.1858.2407.1858-.2407.0434-.2407-.1858-.2407-.1858m1.0907-.3911c.2007-.0201.2138.2034.2138.2034-.2815.0327-.2138-.2034-.2138-.2034m1.1142.911c-.0927-.3253.2157-.2699.2157-.2699 0 .2234-.2157.2699-.2157.2699m8.4858-.9591c.1858 0 .1361.2176.1361.2176-.2203.008-.1361-.2176-.1361-.2176m-1.1107.3046c.2611-.0608.2053.2065.2053.2065s-.2684 0-.2053-.2065m.0723.8796c-.015.0957-.3739-.0489-.1962-.135.1812-.0819.1962.135.1962.135m-5.2171-.1823c.1715-.0346.2288.1773.2288.1773-.2957.0242-.2288-.1773-.2288-.1773m.3842-.4215c-.0612-.1112-.0169-.1766-.0169-.1766.2126-.0515.2126.1512.2126.1512s-.1365.1342-.1957.0254m.705-.422c.1865-.0173.1776.1765.1776.1765l-.1088.0762c-.1523-.135-.0688-.2527-.0688-.2527m1.6357.3631c-.085-.092-.1797-.1177-.0704-.2112.1127-.0927.1534-.0777.1796.0339.0238.1085.0496.0853.0611.2538 0 0-.0873.0146-.1703-.0765m1.0949 2.9306c-.0496-.0442-.4342-.0861-.5773-.1284-.1461-.0408.0204-.2154.0204-.2154l-.0534-.0519c-.1773.2265-.4189.1242-.555.0185-.1354-.11-.3739-.11-.2889-.2816.0854-.1665.7162 0 .655-.1088-.0592-.1093-.2723-.0577-.6734-.0481-.4015.007-.2977-.0796-.22-.3119.0777-.2381.7492-.1019.5792-.2116-.1723-.1096-.5554.1435-.5554-.1684 0-.3107.037-.2104.2719-.1608.2389.0496.4462.01.3443-.0238-.1054-.0354-.4773-.1773-.4608-.33.0185-.15.2554-.2792.2554-.2792s-.0166-.0623-.1869 0c-.17.0688-.3569.1346-.2385-.0623.1185-.2054.0739-.3066.0223-.2231-.048.0873-.0984.2231-.2207.2288-.1162.007-.1439-.2611-.1496-.1945-.009.0677-.1039.1684-.3166.1684-.2103 0-.4088.1515-.5549.2623-.1397.1077-.3143.0996-.4735.0408-.1646-.0597-.1369-.21-.1204-.3946.017-.1858.1612-.1947.2666-.0769.0988.1173.2107.1023.3388.0254.1258-.077.3473-.007.3384-.042-.005-.035-.2276-.11-.3499-.0442-.1166.07-.3643.0442-.3527-.1004.007-.1404.1515-.0938.1423-.2273-.008-.1319.1888-.37.3238-.1404.1642.2719.255.3381.255.3381s.4938.0204.4938-.0104c0-.0358-.1546-.0858-.3569-.0858-.2034 0-.2334-.0911-.07-.2777.1631-.1845.2681-.0677.4362-.0677.1926 0 .3996.2204.4219.2878.0296.07.1146.168.1646.1157.1169-.1157.1442-.1596.1946-.0581.0519.1.2384.0581.3069.1.0684.0443-.0423.3223-.0592.4716-.0173.1549.078.1869.085.3234.008.1335.1557.06.1557.1923 0 .1334-.1057.3953.1662.3707.2723-.0269.1684.1416.1684.2781 0 .1327.0204.0692.2589.009.2353-.06.1761.1777.1949.303.0181.125.1531-.1034.2716-.0915.1184.007.0204.1685.1946.29.1792.1308.1496.1977 0 .4146-.1427.2211-.4408.2211-.4927.1788m-4.9832 2.8892s.0253.0418-.0608.1869c0 0-.0642-.172.0608-.1869m.0746.16c-.0493-.1451.1265-.1047.2357-.1047.1131 0 .125.0819.2377.095.1131.01.0604.195.0604.195-.0473-.1088-.4846-.0365-.5338-.1853m5.984-2.1058c-.0943-.2719-.4462-.4068-.4462-.4068.0558.2103-.1777 1.0018-.1777 1.0018.1423.1235.3146-.6446.3146-.6446.2796-.0165.3143.5446.3143.5446l.0615.0412s.0204-.2643-.0665-.5362m-3.0384-.9926l-.1457-.0296s.0865.0803.2146.2577c.1346.1742.17.2357.17.2357l.1073.01-.3462-.4735zm-.4346-.0919c-.0634-.0715-.3777-.4092-.3777-.4092l-.3057-.009-.0177.0724s.1611-.0131.2865.0819c.135.0957.4477.3996.4477.3996s.0277-.0627-.0331-.1354m-3.5268 2.0768l-.0434.1219h-.1631s.0119.2051-.06.3612c-.0658.1527-.008.1923-.008.1923l-.0973.0788.1654-.0427.0685-.2772.2057-.0682v-.2111s-.0284-.0965.0323-.1277c.0573-.0273-.1-.0273-.1-.0273m-.3423-.7476l-.0692-.0285s.0135.1258-.1161.1535c-.1296.0211-.1646.1253-.1646.1253l.0484.0412.0212.0815.1065-.009s.0112-.1354.1046-.2231c.0981-.088.0692-.1411.0692-.1411m-.4765.7749l-.0223.6085-.0457.1184.0838.1716.1165.05.0243-.1446-.1189-.07.0296-.0766.009-.6573h-.0766zm.004-.4507c-.0719 0-.0719.1153-.0719.1153h.078s.0689-.1153-.006-.1153m.1992 1.8426l.1081.2508.233.0473-.008-.0854s-.255-.1819-.2723-.29l-.0223-.1046-.1089-.0108.0708.1927zm.9673-.0473c.02.0669.12.0669.12.0669l.0269-.2788-.1269.0169s-.2816.1538-.2816.31c0 0 .2419-.1854.2616-.115m.008.4281l.3727-.0489.0181-.0723s-.2731-.0373-.4185 0c-.1484.0385-.2319.3496-.2319.3496.145.0185.2596-.2284.2596-.2284m1.19.0542c0 .0735.0527.0646.0527.0646s.0496-.115.1388-.0646c.0831.0481.0242-.1735-.0392-.2088-.0635-.0385-.2515-.0631-.2515-.0631s.0388.1623-.0593.1623c-.1015 0 .1585.0334.1585.1096m8.0366-4.8209c-.1923.2026-.7511.5826-.7511.5826s.1146.245-.2035.4708c0 0 .0996.1669-.1354.3372 0 0 .2496.0669-.1034.4827-.3512.4161-.3735.3481-.3735.3481l.0223.068s.3396-.0795.3396.1131c0 .1896.1266.2458-.5322.3811 0 0-.0431-.3946-.1593-.3946 0 0 .0127.4104-.0354.4981-.0515.0854-.3626.1584-.4142.1584-.048 0 .1389-.3814.0516-.4668 0 0-.1719.3938-.3366.6399-.0496.0751-.4369.0477-.4369.0477s.2385-.4857.2631-.6249c.0127-.075-.0646-.0277-.0646-.0277s-.3092.6319-.5458.6926c-.2388.0589.037-.5438.037-.6788 0-.1342-.0743-.0488-.0743-.0488s-.1238.5815-.4011.5815c-.1223 0 .2408-.5681.1492-.7673-.083-.1973-.1515.8257-.6934.6927-.1042-.0258 0-.1504.0877-.335.0861-.1842.1581-.4681.0711-.6l-.0711-.0161s-.0619.7265-.3523.8645c-.285.1354 0-.3715 0-.3715s.0388-.1861.015-.4319l-.0723-.045s0 .858-.4535.858c-.2846 0 .1016-.5284.1408-.663.0369-.1357.0108-.54-.1019-.6038 0 0 .0627.5807-.1004.7515-.1604.1708-.29.548-.6696.4653-.1731-.0342.1723-.5934.2485-.8345.0742-.2493.0742-.7142-.0243-.74 0 0-.0519.5788-.2.9615-.1515.3807-.2492.5288-.4253.5673-.1704.0373-.2093-.1504-.0869-.3838.1296-.2354-.1108-.2954.0996-.5154.2153-.2231.1365-.4957.1365-.4957l-.0823.0127s-.0185.2749-.1004.3845c-.1146.1477-.15.2354-.1273.3935.0239.1607-.1961.5034-.4127.5411-.2084.0373.0389-.1857.1254-.6542.0912-.4688.1354-1.3057-.1369-1.453 0 0 .2154.9453.0396 1.4673-.1765.5164-.1169.628-.3154.6165-.2473-.0177-.0938-.2839-.0938-.4223 0-.1324.1311-.6135.0465-.8861 0 0-.073.518-.1646.5676-.0857.0489.0143.4569-.0207.5704-.037.1065-.1847.2792-.2635.1704-.0727-.115.0262-.3089.0139-.4708-.0139-.16.0353-.3696-.0139-.4308-.05-.0607-.1254-.2223 0-.3092.125-.0849.0377-.4907-.0665-.5046 0 0 .0815.2731-.006.407-.0858.1353-.1881.1995-.0757.3972.1107.1977.0984.3185.0488.5262-.0488.2146-.1488.2588-.1223.358.0261.1023-.2515.1135-.2515-.0488 0-.1585-.0858-.4681-.1608-.5043-.0769-.0364-.1219-.1834-.1219-.1834s0 .2196.1088.3646c.1146.1512.0639.3593-.0877.3461-.148-.0111-.1973-.3695-.5961-.353 0 0 .575.3419.4988.5784-.0757.2331-.5107-.4565-.8215-.3349 0 0 .8031.4734.6823.6903-.0846.1592-.3123.0108-.3123.0108s-.0727-.1846-.2604-.2211c0 0 .2012.2103.2262.3095 0 0 0 .1847-.1746.06-.1762-.118-.1112.1135-.1985.1739-.0865.0619-.2227.0146-.2615.1988-.04.1842-.04.2446-.04.2446s.0669-.1854.14-.2212c.075-.0373.2488-.0234.2607-.1603.012-.135.0608-.2227.2354-.0854.1746.135.0881-.0842.1392-.1227.0516-.0365.1962-.1176.2743.0385.045.0965.0434-.1115.1726-.075.2231.0584.2885.1973.3489.1715.0596-.025.2961-.1992.1607.2588 0 0-.2476.062-.3499-.0369-.1004-.0992-.3323-.125-.4696-.0396-.137.0869-.067.3973.1723.47.2357.0731.2476.0958.4734.0362.2238-.0624.5346.0257.5234.2719-.01.2488-.1884.2323-.1884.2323l.0269.0899s.2577-.1134.2858.0732c.0227.1838-.1243.2607-.3385.2434 0 0 .0173-.1212-.0854-.0954-.1011.0254-.0746.0954-.0746.0954l-.1361.0173s-.1027-.1265-.1619-.1642c-.0639-.0354-.112-.1116-.1981-.0858-.0865.0254.1596.1115.0254.1992-.1419.085-.1762-.1134-.1762-.1134s0 .1642.1104.2207c.1108.0612.1016.0612.1877.0139.0869-.0497.1854-.0877.1854.0388 0 .1227-.1854.2204-.3216.2062-.1376-.009-.2473.0381-.273-.0966-.0273-.1342-.0869-.0749-.0869-.0749s.0227.163-.0746.163c-.1023 0-.212-.075-.212-.1892 0-.1065-.013-.1946-.013-.1946h-.0627s.0496.2957-.0516.3088c-.0996.01-.4834 0-.4834 0s-.0908.2831-.27.1216c-.1861-.1547.0415-.3605.0992-.402l.022-.1577-.1366-.1026s-.3177-.1369-.4296-.28c-.1154-.1454-.3404-.3931-.3404-.3931l.2397-.0242s-.3204-.405-.4-.5493c-.0781-.148-.0593-.2276.0796-.2276 0 0 .1123-.1869-.0127-.3446-.0669-.0908-.0462-.2881-.0462-.2881s.122-.0684.2596-.005c0 0 .0604-.1242-.0442-.3031-.1019-.1804-.0538-.5604-.0192-.663.0327-.1008.1915-.025.2592.0331.0685.0588.0685-.28.0685-.28s0-.3373.2023-.4392c0 0 .1277.2253.1277.363 0 .1342.1126.1777.1126.1777s.1016-.4038.2631-.4954c0 0-.0688-.0796-.1834.0566-.1143.1353-.225 0-.215-.0793.0103-.0769.0438-.223.1723-.3441.1219-.1262.1696-.3162.1696-.3162s.295.0904.3019.4042c.0115.3123.2057.8623.3411.9427l.0473-.0481s-.25-.335-.205-.6281c0 0 .0462-.113.205 0 .1627.1162.3954.4062.3954.4062s.0277-.2812-.4827-.5623c0 0-.2046-.1008-.1973-.2696 0 0 .1019-.0185.3754.058.2715.0762.4427.1012.4427.1012s-.1458-.1777-.4885-.2815c-.3369-.1027-.5196-.1127-.578-.4058 0 0 .3742-.0662.5669-.0104.195.0562.2869.0931.2869.0931s-.1531-.0827-.2177-.16c-.0692-.0819-.5557-.0196-.6696-.0561-.1184-.0327-.2165-.1131-.2046-.2597l.4515-.1003-.0757-.0535-.5585-.0242s-.273-.1039-.1234-.2927c.0777-.1015.4164-.0235.4164-.0235s-.0772-.1442-.1784-.1557c-.0992-.01-.5988.0565-.6449-.0823-.0462-.13.1107-.2135.2719-.265 0 0-.1158-.0554-.3435-.015-.2265.0489-.3034 0-.4557-.0404-.1439-.0492-.51.1069-.6431.009-.1396-.1004-.0896-.3243.0208-.3708.1123-.0457.6903.0343.7938.1366 0 0-.0869-.1916-.2811-.1916-.1939 0-.4419.0339-.4419-.1472 0-.1801.0565-.2809.1815-.3359.1215-.0568.305-.0411.4734.1697.1704.2127.26.1881.3646.2669.1054.0803.2154.1592.2154.2481 0 0 .08-.1001-.0115-.222-.0912-.1269-.2039-.1049-.3085-.2122 0 0-.2484-.07-.1919-.2408.0577-.1666.1919.0227.2731-.0508.0827-.0819.1715-.2404.3865-.0596.2138.1789.1381.5373.1708.6965 0 0 .1603-.0789.2838.0789.1231.1576.2288-.0443.1927.315-.0335.3573.1146.5503.2969.5503.1823 0 .2811.1561.3154.235.0365.0777.2038-.0789.25.1119.0473.1927.1126.2662.2595.2242.1485-.0458.2289-.0115.2931.1466.0716.1561.2165.2603.3996.358.1777.1039.3058.215.3058.3297l.0561.008s.0216-.2788-.2692-.435c-.2977-.1592-.4077-.3053-.3957-.4615.006-.1584.1461-.1931.2257-.1369.0773.0569.1027.2034.1462.1688.0465-.0319.0803-.225.2034-.1119.1265.1119.1039.1465.2315.0569.122-.0899.4958-.0899.4758.055-.0262.1469-.1185.1123-.1035.1693.0108.0553.0708.0553.2719-.057.2127-.1169.5554.0681.8508.2131.2961.1435.77.3381 1.0307.4835.2627.1457.5904.2465.8084.2603.2127.008.2608.1858-.163.3465-.1473.0573-.3585.0124-.3585.0124l.0446.0765s.4362.1069 1.0304-.3804c.34-.2804.8288.3727.8288.3727s.09.0769.1365.0531c.0466-.0227-.2384-.3715-.3088-.4258-.0669-.055-.4031-.2369-.2812-.3569.1258-.1257.5-.26.9081.6946 0 0 .1373.1373.0338-.1815-.1019-.3138-.3407-.5496-.533-.6823-.0739-.055-.1162-.3585.3053-.3735.3093-.0103.4789.8308.487 1.0758.0126.2269.068-.0558.035-.3223-.035-.2708-.3054-.8796-.2127-.9311.0869-.0558.438-.0423.5326.8518.0312.3374.0985-.2477.0685-.415-.0373-.1726-.2277-.4838-.0219-.5157.203-.0365.3811.3354.3811.4489 0 .1103.1831-.1135-.0115-.3254-.1923-.2177-.225-.4377.0631-.4535.2792-.01.5734.0816.5734.0816l-.0131-.112s-.4861-.0346-.5288-.2373c-.0481-.1995.3381-.1226.4531-.1657l-.009-.0796s-.435.0546-.4442-.1323c-.0112-.195.2234-.1142.4623-.4169l-.1019-.0131s-.1473.225-.455.1573c-.305-.0685-.2589-.2361-.4862-.2127-.2265.0216-.4976.2465-.5884.2127-.0911-.0323-.0223-.1573-.1054-.2361-.0781-.08.0143-.19.2531-.1358.2354.0558.2058-.0408.3738-.0542.1681-.0112.2592.11.3942.0542 0 0-.1796-.1861-.3519-.157-.168.0351-.4161.1504-.5103.0562-.0889-.0853-.0758-.1219.0253-.2073.1004-.0961-.0457-.3319.1466-.3319.1907 0 .3384.135.4427.135.1015 0 .1257.2489.3753.348.2492.1028.3735.1504.3735.1504s-.0243-.1504-.1477-.1969c-.1242-.0399-.3869-.12-.3188-.2553.0703-.1347.228-.1693.4319-.155.203.008.2492.0765.3069.2554.0588.1811.2053.4049.3642.5064.1607.1001-.1219.2812-.1219.5062 0 .2238.3384.7549.1442.9558m-9.0016 5.9381s0 .1116-.1607.0105c-.1512-.1031-.0954-.2582-.0954-.2582.4038-.0769.2561.2477.2561.2477" fill="#fff200"/><path d="M108.4796 547.7446s-.0204 1.238-.9015 2.0907c-.8888.8565-.1869.7873.3834.9434 0 0 .0339.4626.5181.5834.3654.09.15.3942.8642.4484.2961.0247.4258.1789.5438.1789.3589.0127.4419-.2719.8177-.8957 0 0 .2746-.135.2746-.6043 0-.2511.3396.0189.2507-.7226-.0942-.7399-.2938-1.5934-1.0007-1.9064-.7034-.3169-.6792-.6085-.6792-.6085s.6069.2019.905.5396c.2977.3377.9326.9657.9772 1.9569 0 0-.0226.4234.3847.1091.4107-.3149.588.0824.8638-1.078.0892-.3826.2719-.1627.4069-1.3257.045-.3799.2296-.5634.045-1.0073-.18-.4507-.6815-.9434-1.4046-.9668-.7277-.025-.7919-.0919-.7919-.0919s-.1611-.3589.1112-.8766c.2715-.5149.7476-1.6161.1826-2.041-.5699-.4277-.4345 0-.9099-.4065-.4792-.4035-.4792.0892-.905.0207-.4365-.0669-.4377-.4815-1.1399 0-.4516.3177-.9508.2931-.335.7677.315.2442 1.0184.9646.7919 2.0433 0 0-.07-2.5122-2.7234-2.6076-.6376-.0184-.5703.4501-.5703.4501s-.0412.1818-.2697.2915c-.2253.1138-.0473.7415-.2499.9249-.205.1769-.5446.4223-.1343.8735 0 0-.3669.5391.0439.6269.4065.0915 1.3153-.605 2.676.2692 0 0-1.7099-.5573-2.8129.0238-.3416.1781-.0639.36-.2481.7189-.1842.3599-.1127.583.1108.6507 0 0-.065.2469.0453.3157 0 0-.5207.6962.2539 1.0765.268.1358.4038.0697.4038.0697s-.1127.2665.0235.3095c0 0-.2735.8781.6372 1.0596 0 0 .635.7192 1.3385-.1999.7045-.925.5915-.5619 1.2226-2.0038"/><path d="M117.2196 542.8074c-.1034.2-.7642.3358-.7642.3358l.1835.1712s.3088-.1858.3569.0996c.0535.285-.4404.3188-.5084.1173-.067-.2027-.2539-.1684-.2539-.1684s.0316.0511.0169.2034c-.0442.3569-.5107.1146-.3222-.1377.183-.2504.1019-.3189.1019-.3189s0-.0861-.1223.0685c-.1162.1504-.4589.0327-.4069-.1546.0515-.1858.3753-.0981.3753-.0981-.0365-.1711-.6472-.1031-.6472-.1031s-.037.1031.1365.2873c.1727.1877.0704.3689-.0831.3043-.1554-.07-.2938-.5762-.2938-.5762l-.2369.0693s.135.2215.2569.2865c.1184.065.1834.3035 0 .3377-.1904.035-.4439-.5389-.4439-.5389l-.2219.0635s.0516.0873.1204.2027c.0665.1185.3219.2385.2885.3742-.0335.1319-.3058.0481-.3758-.1357-.0646-.1827-.255-.3369-.255-.3369s-.2554.0669-.2188.1838c.0315.1188.4738.2888.3388.4561-.1354.1693-.2388-.0354-.3073-.1673-.0681-.1357-.2734-.2699-.2734-.2699s-.3908.0999-.2208.1842c.1704.0857.5627.253.4942.4223-.0681.1657-.29.0507-.4254-.1527-.1369-.2004-.3384-.2004-.3384-.2004-.2408.0488-1.7561 1.2611-1.9926 1.5818-.2385.3185-.4423.1688-.4423.1688s-.3258.0655-1.038.6401c-.7181.5722-1.5654.7249-1.6857.7407-.12.0165-.3531.0969-.3919-.0861-.0339-.1485.2046-.1308.2046-.1308.2919-.0354 2.5518-.7927 3.1479-1.6845.5954-.8923 1.9572-1.6354 1.9572-1.6354l.0181-.3885s-.1361-.553.1858-.5072c.3238.0535.0369.4922.0369.4922l-.0369.2693.255-.1846c0-.5054.1203-.7808.3446-.6942.22.088 0 .3215-.0723.425-.067.1007 0 .2334 0 .2334l.3273-.1834c-.035-.5227.0646-.6412.2742-.6235.2015.0138.0496.285-.0208.3373-.0704.0492-.0334.2177-.0334.2177l.2699-.1169c-.0538-.3197.1039-.7577.3258-.6408.2204.1169-.085.3888-.085.3888l-.0181.1512.2366-.018s.0519-.6062.2738-.5893c.2254.0147.2254.3319.12.3884-.1015.0489-.035.1181-.035.1181.7684 0 1.0215.1843 1.0215.1843.0496-.5762.2219-.4735.3588-.3589.1335.1242-.1519.4931-.1884.6785-.032.1854.2734.048.4438-.1669.17-.2208.39-.0185.2884.1845m-6.3312 1.5481c-.3408.7246-.3754.5069-.7662 1.0114-.2127.2797-2.161 1.2123-2.316.9601 0 0-.1023-.2693 0-.4024.1053-.1354.2926-.3199.2396-.4584-.0508-.1339.3057.2861.6115-.0993.3065-.3845.7323-.9149.05-2.1083-.2854-.5042-1.1377-.5857-.5577-.8061.5758-.217.9.7584 1.0719 1.0788.1681.3184-.0681-.4904-.2054-.6935-.1373-.1996-.1554-.4019-.3942-.5519-.235-.1542-.0146-.3388.2569-.2061.2746.1369.5273.4077.5977.8123 0 0 .0831.1488.0496-.49-.0365-.6396.7319 1.0607 0 2.376 0 0 .2373-1.3341 0-1.5672-.2384-.2357.1708.9242-.3046 1.7492 0 0 .1011 0 .0662.2219 0 0 .7538-.1673.6811-2.5438 0 0-.3069-.4704.0665-.4704.3738 0 .2723.4027.2723.455 0 .0501-.0669 1.5496-.2038 1.7669 0 0 .1015.1696.1911-.4203.0808-.5923.2019-.8597.1327-1.1316-.0704-.2672.1019-.4691.1873-.3184.085.1535.4258 1.6157-1.2088 2.9334l.0704.0638s1.4119-.7385 1.3934-2.931c0 0 .0519-.082.2054.0188.1553.1019.205.2877.118.6227-.0826.3392.0985.2665-.3049 1.1284m-3.4726-1.2269c-.0685.0496.3731.4185.5081.5365.1369.1193.273.4904-.0327.135-.3058-.3561-.5642-.3215-.3216-.1673.2366.1516.9712 1.4146.7819 1.3961-.1853-.0142-.1184-.2361-.3242-.555-.2034-.3184-.4419-.2192-.1531 0 .292.2177.2754.9923.137.6904-.1873-.4123-1.1092-.9438-1.1092-.8426 0 .1011.8353.5737.9349.7899.1054.2207-.1661.0369-.4211-.1815-.2546-.2181-.7823-.152-.4261-.0527.3576.105.4765.2869.6811.4549.2034.1708.1907.5381-.0696.2873-.7727-.7684-2.4322-.4215-2.4322-.4215-.4089.0789-.3254-.3027-.0712-.3703.2073-.0512.4254-.035.3615-.2035-.0973-.2346-.7492.4046-.5646-.2508.187-.6576 1.3988-.1015 1.1773-.3219-.2219-.2184-.8196.0362-.8719-.1522-.05-.1835-.0665-.2004.105-.585.1681-.3889 1.3965.1296 1.308.0142-.0842-.1177-.7119-.2354-.7119-.2354s-.6288-.1492-.2399-.1492c.7492 0 .8361-.0519.4776-.0877-.3565-.0339-.5103-.0665-.3915-.2334.1181-.1704.3915-.1704.3915-.1704 2.058.1704 2.263 1.8195 2.263 1.8195-.1184-.4876-.918-1.1953-.9861-1.1434m.0565 2.9003s.0862.1719-.0996.0984c-.1877-.0707-1.0022-.4942-1.6891.1004 0 0-.0362.0861.2253-.0742.2612-.1631 1.0035-.2069 1.4.1603.2096.1993-.3615-.0249-.8504.1993 0 0-.1746.1361.1266.0507.2988-.0904.6999-.125.6899.0239-.015.1481-.7992-.006-1.2288.395-.2165.1992.1139-.0373.3785-.0739.2561-.0373.8923-.3088 1.0623-.0488.1353.2107-.6169.3827-1.0054.8777-.2957.3849.9042-.667 1.0369-.667.1396 0 .1273.1224-.5584.8415-.4785.4943.6622-.6288.7741-.5684.1273.0604-.1992.8154-1.0126 1.5596 0 0-.0519.16.1246.073.1758-.0877.8634-.8307 1.0534-1.4976 0 0 .4004.2846-.4388 1.4976 0 0 .6246-.3711.6246-1.5833 0 0 0-.0747.0642-.0747.0608 0 .0985.2958.0473.6185-.0473.323-.8376 2.0491-1.8884 1.9806-.5611-.0349.4242-.188.74-.6561 0 0 .0615-.173-.0746-.0627-.1381.1127-.8642.7681-1.2515.3231-.3896-.4469-.1646-.4334.2508-.6804.4096-.2472.275-.2361.1969-.2246-.0739.0143-.6408.3274-.7027.15-.0965-.31.255-.3342.3542-.4445.1008-.1158-.688.1826-.8372.0103-.1504-.1734-.3881-.2981-.192-.8922.127-.3697.9923-.445 1.2892-.6638.3012-.2251-.6634.0184-1.0742.3184-.4138.2981-.3011-.1496-.198-.1747.0977-.0238.4134-.0726.4134-.1845 0-.11-.4134.2469-.605.075-.1834-.1758.1423-.2731.1746-.4235.0416-.1442-.2357-.593.4912-.718.7253-.1231 1.438-.2212 2.1887.3596m1.1796 1.9583c-.03-.3838.2996.2477.2715.5566-.0238.3115.0727.978.0404 1.2388 0 0 .1112.223.1223-.2989.0154-.5184-.09-1.3611-.1973-1.6468-.1169-.2862.2731.2354.4454.9203 0 0 .1777.5219-.0708-.5223-.0677-.2611-.2915-.5699-.2915-.5699s-.0577-.2989.3507.2111c.4146.5077.5096 1.1003.6035 1.0754.0869-.0247-.1889-.917-.7642-1.4977 0 0 0-.2354.2534-.0134.2466.2246.7419 1.1388.7419 1.1388s.1393.178.0912-.0978c-.0466-.2749-.335-.5945-.335-.5945s.1496.0253.3477.1984c.2.1746.5399.4354.7015 1.1015.1642.6681.0108 1.1903-.0616.8419-.0738-.3473-.2565-1.6541-.4642-1.508-.0884.0585.5515 1.3619.2758 1.7565 0 0 .0146.7915-.265.5449 0 0-.0992.9284-.6154.8392-.5096-.0865.1089-.5926-.0223-.8769-.1242-.2853-.17.9804-.7496.7808-.5811-.2031.4016-1.0412.2481-1.7826 0 0-.1334-.2869-.1465.1727-.0127.4576-.5623 1.4737-.7877 1.0395 0 0-.3392-.1103-.1388-.37.2034-.2623.4165-.6095.2754-.6934-.1366-.0873-.2254.6173-.5993.5827-.3765-.0412-.5522-.0516-.2242-.3723.3239-.3242.9977-1.6069.9646-2.1546m.9596-.8795c-.6396-.2362-.6008-.125-.7861.0742-.1904.1969-.9639.0992-.9342-.3319 0 0 1.1095-.0423 2.0207-.8542.4549-.4061.8153-.2719.8153-.2719s.4754-.3816 1.8857.3177c.3161.1557 0 .1773 0 .1773s.3608.3373.3161.5396c-.0461.2023-.8453-1.0315-2.2683-.8762-.4104.0435.498.1347.7719.2254.2734.0896 1.1803.4485 1.3614.9662.1797.5161.0239.4253-.2961.1596-.32-.2727-.9065-.745-1.3615-.7204 0 0-.2088.0746.0904.1219.2961.0527 1.443.7161 1.5861 1.2519.0923.3196-.0115.4457-.1465.4969 0 0-.1277.1827-.2812.0104-.1477-.1743-.7088-1.2011-1.2842-1.3235 0 0-.1384.0497.0997.1362.2411.0861 1.1514 1.1873 1.138 1.3723 0 0 .0134.3861-.1608.2373-.1777-.1489-.3992-1.8192-2.5549-2.0215 0 0-.1369.1015.0773.1015.2116 0 2.0949.3035 2.4776 2.478.05.2843-.2777.1835-.2515.01.0219-.1734-.2592-.7903-.3477-.7308-.0908.0639.4865.7285.12.8904-.1323.0627-.0961-.1596-.1461-.3676-.0539-.2112-.5312-1.5492-1.9411-2.0688" fill="#ee2922"/><path d="M102.7379 563.0363l3.9429-1.0085.3696.2373.5462-.2584.4088.1923.4742-.1712.5277.1285.1242-.2365 1.2573-.215 17.9135 1.8664v.1493l-1.0846 1.1142 1.1734.2142v.1523l-.9969.7273 1.0581.3011v.1269l-1.4934.7519 1.3634.4292.0688.127-1.5838.6442.955.3211.0177.1285-1.2319.5149v.1712l-1.8241.4707v.1731l-3.1784.4707-8.2762-3.3233s-.8323.1142-1.4518-.1496c-.6089-.2561-1.3208-.2358-1.3208-.2358l8.5993 3.3657s.4323.1065.2384.7107c-.1965.5966-1.018 2.5899-1.018 2.5899s-.1954.5808-.8415.3654c-.8769-.2865-5.4613-1.9068-5.4613-1.9068l.8638 1.8014-1.9926-.5607v.4119l-.6477-.1977-.2607.1976-.1077-.0457-.2369.1284.0188.1524-.2811-.0223-.2596.2138-.2381.0853.0446.1062.215.0446v.2358l-.2358.0446.1927.47-.24.1285-.0415.2146-.1073.0626.1296.4096-15.5113-.8357-2.4687-2.5949 1.0622-.0869-1.0199-1.0277h1.1472l-1.2753-1.6733 1.2553.1734-.9957-1.7384.9327.0415-.3689-.6414.8015.1292-.4546-.7081h.7965l-.4926-.7511.798.1288-.4311-.7703.8438.085-.2404-.45 3.7929 1.2445 1.2338-3.7963s.1081-.6646 1.1277-.2127c1.0165.4481 10.2015 4.0933 10.2015 4.0933s.6511-.3442 1.2988-.1719"/><path d="M103.5352 563.0648l8.9162 3.6825s.2923.2423 1.0311-.03c.5342-.1973.3273-.4854 1.0065-.3439.5346.1104.0757.7154-.2481.4435 0 0-.4107.2461-.5738.3311l7.6324 3.1688c.388.1718 2.7491-.2354 2.7491-.2354v-.1346l-17.492-7.7143m.8238.2076l.06-.17.3265.037 18.1655 7.0227.008.1243s-1.3642.3819-1.8911.3181m-15.7974-7.4278v-.112l.2962-.0253 18.6408 6.5328.0257.1219-.8849.37s-.2104.0119-.3366-.0481c-.1238-.0646-17.7412-6.8393-17.7412-6.8393m1.0215-.0746l.0889-.1989.4238-.0107 18.0481 5.6074-.009.0873-1.2861.4642s-.0827.0508-.3977-.0353c-.3112-.0874-16.8682-5.914-16.8682-5.914m1.319-.1231l.1762-.0754L127.91 566.36v.085l-1.2227.6042s-.0869.0396-.3442-.0235c-.2592-.0631-15.7509-4.879-15.7509-4.879m2.4645.3327l13.9952 3.4748.8342-.6911-14.4032-2.798m-.4389-.1834l-.0238-.1231 14.9286 1.6646-.0257.0849-.9339.935" fill="#fff200"/><path d="M127.2177 564.8347l-.105.1057 1.278.2608v-.1519m-.0884-1.3288l-14.4756-1.635 14.4756 1.4854m-.9081 2.3579l-.1054.0985 1.1635.3292v-.1269m-1.6634.9688l.1704-.09 1.3634.4288.0684.1274m-1.5838.6442l.955.3211.0177.1285-1.1796-.3893m-.0523.9046l-.1977.0788.1977.0924" fill="#66686c"/><path d="M114.6051 566.6603c0-.0838-.0646-.1557-.155-.1557a.158.158 0 00-.1573.1557c0 .087.0704.1543.1573.1543.0904 0 .155-.0673.155-.1543m-4.7436-.0896s.17.2043.535.2043c.358 0 .8953 0 1.1911.13.303.1284 1.2895.4234 1.9537.1411.6608-.2854.7146-.463.6496-.5415-.0665-.0754-.5607.4511-1.0415.44-.4796-.015-.9349-.065-1.5707-.3361-.6369-.2685-1.808-.2466-1.7172-.0378m-17.7185 6.0382h-.7289l2.1338 2.1108 14.8913.8761.0404-.1573-15.2044-1.4592" fill="#fff200"/><path d="M91.4603 571.5302l1.9757 2.3153 15.1824 1.4576-.0219-.1004-.228-.1h.4445l-.0226-.1811-.7212-.0896-.0415-.1554-14.9086-2.0677-.9085-1.0557" fill="#fff200"/><path d="M91.278 569.9156l2.0214 2.5145 15.4079 2.2011v-.0839l-.1312-.0353v-.0585l.2723-.0112v-.1134l-16.2085-3.4718-.4966-.8077" fill="#fff200"/><path d="M91.4387 568.3449l1.3627 2.3545 15.9313 3.4391.0207-.1811-15.5886-3.9518-1.0218-1.6192" fill="#fff200"/><path d="M91.9841 567.7361l1.2553 2.0949 15.8567 4.0806-.0246-.1784-15.5698-4.2226-1.0638-1.7511" fill="#fff200"/><path d="M92.2556 567.0865l1.3634 2.2895 15.8394 4.2898v-.1327l-15.3836-4.4724-1.2511-1.9742" fill="#fff200"/><path d="M92.6206 566.39l1.5642 2.5391 15.5455 4.5114.0462-.1354-15.2275-4.5583-1.3842-2.2691" fill="#fff200"/><path d="M92.9375 565.7146l1.7023 2.8522 16.0655 4.8502v-.2462l-15.9544-4.8755-1.1784-2.5122m4.3129 1.2115c-.8738-.2589-.6123-.83-.6123-.83s.9254-2.8553 1.1565-3.3926c.2269-.5399.6111-.2699.6111-.2699s19.5189 7.7477 19.8531 7.8724c.3723.1376.2388.5061.2388.5061s-.5822 1.6369-.8326 2.3495c-.2512.7096-.8434.4381-.8434.4381l-9.5547-3.2937c.5496-.7562.5073-1.3419.5073-1.3419s.1316-.1804.1073-.3835c-.0165-.2031-.4292-.3488-.5442-.113-.1108.2376.0673.305.0673.305.0692.1138-.008.6092-.0757.7561-.0481.0973-.2639.4322-.5835.6692" fill="#fff200"/><path d="M93.651 565.5154l1.2584 2.646 17.5885 5.3717-.6803-1.596-4.0834-1.4038s-.5365.498-1.2918.3723c-.7492-.1239-1.4119-.6423-1.9892-.7581-.5823-.1131-.7999-.0434-.8938.0597-.0915.1003-.555.0661-.5196-.2154.0308-.2816.2273-.2696.4535-.2485 0 0 .6953-.1804 1.4691.1723.7739.3461 1.2577.685 1.8738.5938a.9665.9665 0 00.3254-.1061l-.0623-.0958-9.307-3.1556s-.5338-.1023-.7561-.5385" fill="#fff200"/><path d="M118.2892 570.9033l.2704.1042-.7773 2.0703-.2038-.0796.5753-1.545h-.003l-.9738 1.3915-.2676-.1019.7711-2.0715.2073.0781-.5881 1.5853h.002l.988-1.4314zm-1.6668.2453l-.2162 1.085h.004l.5384-.9615-.3257-.1235zm-.4535 1.3092l.385-2.218.2277.0889-.0981.5403.4011.1524.2743-.4735.2253.0881-1.1303 1.9322zm-.4704-.1761l-.218-.0862.5569-1.4846c.0965-.2592.07-.403-.0573-.4507-.1331-.0507-.2462.0392-.3458.2966l-.5511 1.4864-.2208-.0834.5419-1.4573c.1796-.4808.4058-.5942.6665-.493.2604.0992.3516.3334.1739.8119zm-1.0376-.4l-.2181-.0831.5404-1.4499c.0788-.2081.155-.4127.006-.4654-.1212-.0473-.1966.0862-.2612.2554l-.0377.1011-.2084-.0784.0496-.1354c.1069-.2704.2665-.4996.5519-.3958.2181.08.31.3.1381.7531l-.5604 1.4984zm-.9211-1.8346l-.2189 1.0831h.002l.5407-.96zm-.4515 1.3115l.3803-2.2207.2335.0866-.1035.5427.4035.1542.2723-.4765.2292.0869-1.1338 1.9338zm-.8239-.3134l.3335-1.628-.82 1.4414-.3369-.1295.7738-2.0715.2093.0796-.6492 1.7222.003.005.9273-1.6211.1811.0719-.3661 1.828h.002l.6458-1.7234.2088.0796-.7788 2.0742-.3335-.1281zm-.8584-2.3772l-.2457.6599.4884.1877-.1019.2788-.4904-.1895-.2157.573.5215.2004-.1039.28-.7434-.2838.7784-2.07.7535.29-.1023.2757zm-1.0138 1.6626l-.235-.0927-.0792-1.0607-.002-.003-.335.903-.2235-.0827.7731-2.073.2204.0831-.2523.6708.0246.3092.6811-.8035.2492.0935-.888 1.0307.0665 1.0254zm-1.5334-2.0284l-.2273 1.0796.003.004.5546-.9573-.3308-.1258zm-.468 1.31l.4011-2.2192.2334.0881-.1076.5423.4084.1561.2819-.4753.2335.0896-1.1658 1.9284zm-.6962-.28l.32-.828-.4084-.1574-.3189.8273-.2234-.0854.7973-2.0653.2223.0854-.3716.96.4123.1561.3696-.9599.2281.0853-.8019 2.0669zm-.2769-1.628l-.2227-.0827.0143-.0358c.075-.1904.1703-.5057-.0143-.575-.1638-.0615-.303.0758-.5592.7419-.2588.6662-.2457.845-.0765.9077.1531.0673.2781-.1362.3507-.3262l.0173-.0358.2204.0851-.0131.0373c-.085.2161-.2765.64-.6738.4881-.3519-.1324-.3319-.5089-.0484-1.2496.285-.7377.5269-1.0319.8788-.9004.328.1261.2857.5289.1423.9046zm-1.8103.8322l.5915-1.5368v-.005l-.9984 1.3888-.27-.1043.7923-2.0676.2127.0785-.6119 1.5841h.006l1.0135-1.4264.2726.1034-.8011 2.0669-.2069-.0816zm-.8965-.3396l-.2204-.085.5708-1.4811c.1011-.2607.0754-.4054-.0519-.4538-.1397-.0504-.2577.0365-.3558.2984l-.5692 1.4808-.2269-.082.5603-1.4595c.1877-.4758.4127-.5877.6846-.4858.2642.1023.3589.3346.1712.8116zm-1.058-1.5095l-.1585-.0566-.2769.7143.1423.053c.1765.0673.2931-.0442.3765-.2673.1008-.2615.0343-.3946-.0834-.4434m-.3123.9884l-.4416-.1673.795-2.0676.2281.0839-.3315.856.1953.0731c.2612.1.3135.3965.175.7654-.1392.3569-.35.5595-.6203.4565m-1.2373-.4953l-.2319-.0912.6257-1.4715c.1093-.2581.0835-.4-.0511-.4519-.1438-.0558-.2654.0335-.3704.2907l-.6238 1.4715-.2331-.0865.615-1.4473c.1977-.4723.4369-.5853.7154-.4768.273.1057.3699.3407.163.8157zm-1.4588-.562l.3915-1.6157-.002-.003-.9011 1.4231-.3561-.1381.8634-2.0514.2215.083-.7215 1.7072h.003l1.0138-1.593.1973.075-.4292 1.818.0008.003.7242-1.7076.2188.0842-.8707 2.0496-.3535-.1343zm-.8115-2.3764l-.7511 1.7772-.2327-.0904.8681-2.0503.7918.302-.1176.2746zm-1.4203 1.5211l.8711-2.0522.2292.0892-.8711 2.0515" fill="#211d1d"/><path d="M108.1665 568.801s-.0677.037-.0677-.008c0-.1685.006-.2462.2012-.1354.1942.1103.0246.2004.0246.2004-.0915 1.4153-.7261 1.7072-1.3092 1.9091-.5411.1923-1.5288-.2811-1.9934-.5511-.4672-.2689-1.1553-.2689-1.351-.2012-.1908.0666-.2697-.0438-.2697-.0438-.0434-.1008.0666-.2258.5677-.2258.4969 0 1.3711.462 1.6788.5716.3034.1145.9411.5069 1.5872.1815.6466-.325 1.0096-1.0903.9315-1.6973" fill="#fff200"/></g></g></svg>